<svg xmlns="http://www.w3.org/2000/svg" viewBox="0 0 86.3 86.29"><defs><style>.cls-1{fill:#5fd07d;}.cls-2{fill:#c4c4c4;}</style></defs><g id="Layer_2" data-name="Layer 2"><g id="Layer_2-2" data-name="Layer 2"><path class="cls-1" d="M77.52,43.15A34.36,34.36,0,0,0,43.16,8.78h0V0h0a43.15,43.15,0,0,1,0,86.29h0V77.51h0A34.36,34.36,0,0,0,77.52,43.15Z"/><path class="cls-2" d="M73.66,73.64h0A43,43,0,0,1,48.35,86a43.47,43.47,0,0,1-14.47-.69c-.38-.08-.77-.17-1.15-.27-1.3-.32-2.58-.71-3.86-1.15-.66-.23-1.3-.48-1.95-.74-.87-.35-1.73-.73-2.59-1.15l-.59-.29c-.53-.27-1-.54-1.57-.83h0c-.48-.27-.95-.54-1.42-.83s-1.14-.71-1.7-1.09-.93-.64-1.39-1l-.87-.66c-.43-.33-.85-.67-1.27-1s-.84-.71-1.25-1.08-1.08-1-1.61-1.53h0c-.25-.24-.48-.48-.73-.73l-.05-.06L11.11,72c-.25-.27-.49-.55-.73-.83l-.7-.84L9,69.51l-.64-.86c-.22-.29-.43-.58-.63-.88s-.47-.67-.69-1-.32-.51-.49-.76a.08.08,0,0,0,0,0c-.37-.6-.73-1.21-1.07-1.82s-.68-1.24-1-1.88c-.16-.32-.31-.64-.46-.95s-.29-.64-.43-1-.28-.64-.41-1-.26-.65-.38-1l-.35-.95c-.11-.34-.23-.68-.34-1s-.21-.66-.31-1-.19-.67-.28-1c-.19-.67-.35-1.35-.5-2l-.21-1c-.11-.56-.2-1.11-.29-1.67a.43.43,0,0,0,0-.11c0-.26-.08-.53-.11-.8s0-.36-.07-.54-.07-.66-.1-1-.05-.53-.07-.81-.06-.73-.07-1.1a41.1,41.1,0,0,1,0-4.44c0-.37,0-.74.07-1.1s0-.54.07-.81.06-.66.1-1c0-.17,0-.35.07-.54s.07-.54.11-.8a.43.43,0,0,0,0-.11c.09-.56.18-1.11.29-1.67l.21-1c.15-.67.31-1.35.5-2,.09-.33.18-.67.28-1s.2-.67.31-1,.21-.64.32-1a.14.14,0,0,0,0-.07l.35-.95c.12-.32.25-.65.38-1s.27-.65.41-1,.28-.64.43-1,.3-.64.46-1,.34-.66.51-1c.32-.61.66-1.21,1-1.8.18-.3.36-.61.55-.91l.58-.9.61-.9c.41-.59.84-1.17,1.28-1.74s1.11-1.38,1.69-2l.26-.28c.51-.57,1-1.12,1.56-1.66l.13-.14h0A43,43,0,0,1,43.14,0h0V8.78h0A34.36,34.36,0,0,0,9.77,34.92a.2.2,0,0,1,0,.09c-.13.52-.24,1-.34,1.56v0c-.09.43-.17.87-.23,1.31,0,0,0,0,0,.05,0,.18-.05.37-.07.55-.06.37-.1.74-.14,1.12a1.5,1.5,0,0,0,0,.22c-.06.54-.1,1.09-.12,1.64s0,1.1,0,1.65,0,1.1,0,1.65.06,1.1.12,1.65.09.87.15,1.3c0,.19.05.39.08.59a.43.43,0,0,1,0,.05c.06.42.13.84.22,1.25a.51.51,0,0,1,0,.13c.1.52.21,1,.34,1.56a34.51,34.51,0,0,0,3.78,9.28,34.22,34.22,0,0,0,5.3,6.84h0a32.35,32.35,0,0,0,2.6,2.36c.45.36.91.72,1.38,1.06a16.9,16.9,0,0,0,1.41,1h0q.7.48,1.44.9c.45.27.9.52,1.36.76l.12.06.33.18q.54.28,1.11.54l.07,0,.32.15c.38.18.78.35,1.17.51l.08,0c.46.19.93.37,1.4.52l.31.11c.45.17.91.31,1.36.44h0l0,0c.51.15,1,.3,1.56.41h0c.53.13,1.07.25,1.61.35s.87.17,1.32.23l.11,0,.19,0c.62.09,1.23.16,1.85.22l.39,0q.75.06,1.5.09h.41c.5,0,1,0,1.51,0h.35c.58,0,1.16,0,1.74-.1h.09a34.2,34.2,0,0,0,7.67-1.53h0a34.39,34.39,0,0,0,13.73-57l6.2-6.2A43.13,43.13,0,0,1,73.66,73.64Z"/></g></g></svg>