<svg xmlns="http://www.w3.org/2000/svg" viewBox="0 0 86.3 86.29"><defs><style>.cls-1{fill:#5fd07d;}.cls-2{fill:#c4c4c4;}</style></defs><g id="Layer_2" data-name="Layer 2"><g id="Layer_2-2" data-name="Layer 2"><path class="cls-1" d="M77.52,43.15A34.36,34.36,0,0,0,43.16,8.78h0V0h0a43.15,43.15,0,0,1,0,86.29h0V77.51h0A34.36,34.36,0,0,0,77.52,43.15Z"/><path class="cls-2" d="M73.67,73.65h0A43,43,0,0,1,43.15,86.29c-.74,0-1.49,0-2.23-.06-.37,0-.74,0-1.1-.07l-.8-.07L38,86c-.68-.08-1.37-.18-2.05-.29l-1-.19-1-.21q-.59-.12-1.17-.27L32,84.83l-.21-.06-.89-.26-1-.31-1-.33c-.66-.23-1.31-.48-2-.74s-1.3-.54-1.93-.84L24.33,82l-.59-.29A42.84,42.84,0,0,1,17.64,78l-.87-.66c-.86-.66-1.7-1.37-2.52-2.11l-.81-.75-.8-.78-.73-.74-.05-.06L11.11,72c-.25-.27-.49-.55-.73-.83l-.7-.84L9,69.51l-.64-.86c-.22-.29-.43-.58-.63-.88s-.47-.67-.69-1-.32-.51-.49-.76a.08.08,0,0,0,0,0c-.37-.6-.73-1.21-1.07-1.82s-.68-1.24-1-1.88c-.16-.32-.31-.64-.46-.95s-.29-.64-.43-1-.28-.64-.41-1-.26-.65-.38-1l-.35-.95c-.11-.34-.23-.68-.34-1s-.21-.66-.31-1-.19-.67-.28-1c-.19-.67-.35-1.35-.5-2l-.21-1c-.11-.56-.2-1.11-.29-1.67a.43.43,0,0,0,0-.11c0-.26-.08-.53-.11-.8s0-.36-.07-.54-.07-.66-.1-1-.05-.53-.07-.81-.06-.73-.07-1.1a41.1,41.1,0,0,1,0-4.44c0-.37,0-.74.07-1.1s0-.54.07-.81.06-.66.1-1c0-.17,0-.35.07-.54s.07-.54.11-.8a.43.43,0,0,0,0-.11c.09-.56.18-1.11.29-1.67l.21-1c.15-.67.31-1.35.5-2,.09-.33.18-.67.28-1s.2-.67.31-1,.21-.64.32-1a.14.14,0,0,0,0-.07l.35-.95c.12-.32.25-.65.38-1s.27-.65.41-1,.28-.64.43-1,.3-.64.46-1,.34-.66.51-1c.32-.61.66-1.21,1-1.8.18-.3.36-.61.55-.91l.58-.9.61-.9c.41-.59.84-1.17,1.28-1.74s1.11-1.38,1.69-2l.26-.28c.51-.57,1-1.12,1.56-1.66l.13-.14h0A43,43,0,0,1,43.14,0h0V8.78h0A34.36,34.36,0,0,0,9.77,34.92a.2.2,0,0,1,0,.09c-.13.52-.24,1-.34,1.56v0c-.09.43-.17.87-.23,1.31,0,0,0,0,0,.05,0,.18-.05.37-.07.55-.06.37-.1.74-.14,1.12a1.5,1.5,0,0,0,0,.22c-.06.54-.1,1.09-.12,1.64s0,1.1,0,1.65,0,1.1,0,1.65.06,1.1.12,1.65.09.87.15,1.3c0,.19.05.39.08.59a.43.43,0,0,1,0,.05c.06.42.13.84.22,1.25a.51.51,0,0,1,0,.13c.1.52.21,1,.34,1.56a34.51,34.51,0,0,0,3.78,9.28,34.28,34.28,0,0,0,9.29,10.26c.46.35.93.68,1.42,1s.95.62,1.44.9.9.52,1.36.76l.45.24q.54.28,1.11.54l.39.18c.38.18.78.35,1.17.51l.08,0c.51.21,1,.4,1.54.57s1,.35,1.53.5l.08,0c.52.15,1.05.3,1.58.42s1.07.25,1.61.35.87.17,1.32.23l.11,0,.45.06c.46.07.92.12,1.39.16s1.1.1,1.65.12,1.08,0,1.63,0h0a34.22,34.22,0,0,0,24.3-10.06h0Z"/></g></g></svg>