<svg xmlns="http://www.w3.org/2000/svg" viewBox="0 0 86.3 86.29"><defs><style>.cls-1{fill:#c4c4c4;}.cls-2{fill:#5fd07d;}</style></defs><g id="Layer_2" data-name="Layer 2"><g id="Layer_2-2" data-name="Layer 2"><path class="cls-1" d="M8.78,43.14A34.36,34.36,0,0,0,43.14,77.51h0v8.78h0A43.15,43.15,0,0,1,43.14,0h0V8.78h0A34.36,34.36,0,0,0,8.78,43.14Z"/><path class="cls-2" d="M86.24,45.37c0,.37,0,.73-.07,1.1s0,.54-.07.8-.07.68-.11,1l-.06.53c0,.25-.07.49-.11.73,0,.06,0,.11,0,.17-.09.56-.18,1.11-.29,1.66l-.21,1c-.22,1-.48,2-.78,3-.1.34-.2.67-.31,1l-.33,1-.36,1c-.12.32-.25.65-.38,1s-.27.65-.41,1-.28.65-.43,1-.3.63-.46.95l-.48.94c-.16.32-.33.63-.51.94-.34.62-.7,1.23-1.08,1.84l-.58.9c-.2.3-.4.6-.61.89s-.41.59-.63.88l-.65.87a43.73,43.73,0,0,1-7.77,7.77l-.87.66-.61.44-.77.53-.39.26c-.29.2-.6.39-.9.58l-1,.61-.81.46c-.7.38-1.4.75-2.11,1.1l-.76.36-1,.43-1,.41-1,.38-1,.35-1,.34-1,.31c-.67.2-1.34.38-2,.55l-1,.23-1,.21-.9.17-.77.12-.91.13-.54.07-1,.1-.81.07c-.36,0-.73.06-1.1.07-.75,0-1.49.06-2.23.06a43,43,0,0,1-30.5-12.64h0l6.21-6.2h0a34.19,34.19,0,0,0,24.81,10c.44,0,.86,0,1.29,0l1-.06c.72-.06,1.44-.13,2.15-.24a32.43,32.43,0,0,0,4.85-1.06c.53-.15,1.06-.32,1.58-.51a28.74,28.74,0,0,0,3.1-1.26c.51-.23,1-.48,1.51-.75s1-.53,1.48-.82,1-.59,1.45-.91.95-.63,1.41-1a34.3,34.3,0,0,0,8.39-8.81,31.73,31.73,0,0,0,1.73-2.93l.17-.33c.19-.36.37-.73.55-1.11a.24.24,0,0,1,0-.1,33.81,33.81,0,0,0,1.75-4.66c.16-.53.3-1.06.43-1.6s.25-1.08.35-1.62.17-.87.23-1.32c0,0,0-.07,0-.11l.06-.45c.07-.46.12-.92.16-1.39s.1-1.09.12-1.64,0-1.09,0-1.64v0c0-.55,0-1.1,0-1.64s-.06-1.05-.11-1.57-.09-.87-.15-1.31c0-.23-.06-.46-.1-.69-.07-.5-.15-1-.26-1.49s-.18-.89-.29-1.32a2.46,2.46,0,0,0-.07-.29c-.09-.36-.18-.72-.28-1.08L76,32.93c-.11-.35-.22-.69-.34-1-.17-.51-.36-1-.56-1.5-.07-.19-.15-.38-.23-.56s-.28-.66-.43-1-.18-.41-.29-.61c-.18-.4-.39-.81-.6-1.2s-.37-.68-.56-1v0c-.1-.19-.22-.38-.33-.57q-.41-.68-.84-1.32c-.2-.3-.4-.59-.61-.88s-.31-.45-.48-.67-.56-.73-.84-1.08l-.18-.22c-.32-.39-.65-.77-1-1.15L68.6,20c-.37-.4-.75-.8-1.14-1.19h0A34.24,34.24,0,0,0,43.16,8.78h0V0h0a43,43,0,0,1,30.5,12.63h0l.73.74,0,.06.75.81c.25.27.49.55.73.83s.47.55.7.84a42.76,42.76,0,0,1,3.7,5.3c.18.31.36.62.53.93a4.77,4.77,0,0,1,.24.44c.17.29.33.6.48.9a42.64,42.64,0,0,1,2.65,6.39c.1.3.19.6.28.91s.21.72.3,1.07.18.67.26,1,.16.64.23,1L85.53,35c.06.31.11.62.16.93l.12.7c0,.34.1.69.14,1l.06.49.09.86c0,.27.05.55.07.82s.06.73.07,1.1A41.1,41.1,0,0,1,86.24,45.37Z"/><path class="cls-2" d="M73.66,73.65a43.91,43.91,0,0,0,3.64-4.13,42.66,42.66,0,0,1-7.77,7.77A43.91,43.91,0,0,0,73.66,73.65Z"/><path class="cls-2" d="M84.52,55.42c.3-1,.56-2,.78-3C85.08,53.42,84.82,54.43,84.52,55.42Z"/><path class="cls-2" d="M48.09,77.15a35,35,0,0,0,4.85-1.06A32.43,32.43,0,0,1,48.09,77.15Z"/><path class="cls-2" d="M54.52,75.58c1-.37,2.09-.79,3.1-1.26A28.74,28.74,0,0,1,54.52,75.58Z"/><path class="cls-2" d="M68.37,66.47c.52-.56,1-1.14,1.51-1.73C69.4,65.33,68.89,65.91,68.37,66.47Z"/><path class="cls-2" d="M69.88,64.74l.45-.59Z"/><path class="cls-2" d="M70.33,64.15c.53-.68,1-1.38,1.53-2.1C71.38,62.77,70.87,63.46,70.33,64.15Z"/><path class="cls-2" d="M63.47,70.86c.75-.55,1.46-1.14,2.17-1.74C64.93,69.73,64.21,70.32,63.47,70.86Z"/><path class="cls-2" d="M65.64,69.12c.35-.3.68-.63,1-1C66.32,68.49,66,68.81,65.64,69.12Z"/><path class="cls-2" d="M67.72,67.15c.22-.22.44-.45.65-.68C68.15,66.7,67.94,66.93,67.72,67.15Z"/><path class="cls-2" d="M66.66,68.17c.36-.34.72-.67,1.06-1l-.27.29C67.19,67.7,66.92,67.92,66.66,68.17Z"/><path class="cls-2" d="M71.86,62.05c.63-.95,1.2-1.93,1.73-2.93A31.73,31.73,0,0,1,71.86,62.05Z"/><path class="cls-2" d="M74.36,57.58a35.87,35.87,0,0,0,1.75-4.66A33.81,33.81,0,0,1,74.36,57.58Z"/></g></g></svg>