<svg xmlns="http://www.w3.org/2000/svg" viewBox="0 0 103.87 103.87"><defs><style>.cls-1{fill:#d3cc46;}.cls-2{fill:#79b524;}.cls-3{fill:#1c7c2c;}.cls-4{fill:#fff;}.cls-5{fill:#916234;}.cls-6{fill:#dba55d;}.cls-7{fill:none;stroke:#916234;stroke-linecap:round;stroke-linejoin:round;}.cls-8{fill:#1b1c21;}.cls-9{fill:#2b1d0e;}</style></defs><g id="Layer_2" data-name="Layer 2"><g id="Layer_2-2" data-name="Layer 2"><circle class="cls-1" cx="51.94" cy="51.94" r="51.94"/><circle class="cls-2" cx="51.94" cy="51.94" r="44.22"/><circle class="cls-3" cx="51.94" cy="51.94" r="36.8"/><path class="cls-4" d="M65.23,53.19a2.14,2.14,0,0,1-1.48-.54,1.64,1.64,0,0,1-.6-1.27V47a1.64,1.64,0,0,1,.6-1.28,2.3,2.3,0,0,1,3,0A1.7,1.7,0,0,1,67.3,47v4.43a1.61,1.61,0,0,1-.6,1.27A2.15,2.15,0,0,1,65.23,53.19Zm0-7.09a.93.93,0,0,0-.62.23.8.8,0,0,0-.27.59v4.44a.8.8,0,0,0,.27.59.93.93,0,0,0,.62.23,1,1,0,0,0,.63-.23.76.76,0,0,0,.27-.59V46.92a.76.76,0,0,0-.27-.59A1,1,0,0,0,65.18,46.1Z"/><rect class="cls-4" x="68.36" y="45.78" width="1.17" height="15.25" transform="matrix(0.93, 0.37, -0.37, 0.93, 24.63, -21.71)"/><path class="cls-4" d="M72.73,61.38a2.19,2.19,0,0,1-1.49-.55,1.66,1.66,0,0,1-.59-1.27V55.13a1.66,1.66,0,0,1,.6-1.28,2.3,2.3,0,0,1,3,0,1.7,1.7,0,0,1,.59,1.28v4.43a1.64,1.64,0,0,1-.6,1.28A2.2,2.2,0,0,1,72.73,61.38Zm0-7.1a.88.88,0,0,0-.62.24.76.76,0,0,0-.27.59v4.43a.76.76,0,0,0,.27.59.88.88,0,0,0,.62.24.92.92,0,0,0,.63-.24.76.76,0,0,0,.27-.59V55.11a.8.8,0,0,0-.27-.6A1,1,0,0,0,72.68,54.28Z"/><rect class="cls-4" x="79.33" y="50.25" width="1.17" height="7.07"/><rect class="cls-4" x="79.33" y="49.87" width="1.17" height="7.07" transform="translate(133.32 -26.52) rotate(90)"/><polygon class="cls-4" points="30.05 62 37.42 35.68 26.64 35.68 26.64 31.89 41.64 31.89 41.64 36.06 34.38 62 30.05 62"/><path class="cls-4" d="M51.73,61.71a7.45,7.45,0,0,1-5.41-2.09,6.43,6.43,0,0,1-2-4.8v-.31l4.24-.29.07.63a3.14,3.14,0,0,0,1.94,2.82,2.52,2.52,0,0,0,1.06.22c3,0,3.59-1.85,3.59-3.41V47a3.18,3.18,0,0,0-1.28-2.6,3,3,0,0,0-4,.63,3.59,3.59,0,0,0-.64,2v.38H44.8V31.56H59.23V35.3h-10V43l1.46-1.06a5.71,5.71,0,0,1,1.23-.65A4.88,4.88,0,0,1,53.53,41a5.62,5.62,0,0,1,4.75,2,7.93,7.93,0,0,1,1.31,4.89v6.61a6.71,6.71,0,0,1-2.27,5.22A8,8,0,0,1,51.73,61.71Z"/><path class="cls-5" d="M70,73.22l-6.68,1.49A2,2,0,0,1,61,72.37l1.43-6.68A4,4,0,0,1,68.07,63a10.64,10.64,0,0,1,4.6,4.55A4,4,0,0,1,70,73.22Z"/><path class="cls-6" d="M68.4,71.14l-2.74.61A1.46,1.46,0,0,1,63.91,70l.59-2.74a2,2,0,0,1,2.89-1.41,5.45,5.45,0,0,1,2.38,2.37A2,2,0,0,1,68.4,71.14Z"/><path class="cls-5" d="M33.87,73.22l6.67,1.49a2,2,0,0,0,2.36-2.34l-1.43-6.68A4,4,0,0,0,35.8,63a10.64,10.64,0,0,0-4.6,4.55A4,4,0,0,0,33.87,73.22Z"/><path class="cls-6" d="M35.48,71.14l2.74.61A1.46,1.46,0,0,0,40,70l-.59-2.74a2,2,0,0,0-2.88-1.41,5.47,5.47,0,0,0-2.39,2.37A2,2,0,0,0,35.48,71.14Z"/><ellipse class="cls-5" cx="51.94" cy="81.29" rx="18.54" ry="15.48"/><ellipse class="cls-6" cx="51.94" cy="87.54" rx="6.62" ry="7.45"/><path class="cls-7" d="M57.23,89.58a2.83,2.83,0,0,1-5.29-1.42,2.84,2.84,0,0,1-5.3,1.42"/><path class="cls-5" d="M50.62,84.32h2.63a1.26,1.26,0,0,1,1.26,1.26v0a2.58,2.58,0,0,1-2.58,2.58h0a2.58,2.58,0,0,1-2.58-2.58v0a1.26,1.26,0,0,1,1.26-1.26Z"/><circle class="cls-8" cx="43.25" cy="82.49" r="1.47"/><circle class="cls-8" cx="60.62" cy="82.49" r="1.47"/><path class="cls-9" d="M50.88,84.32H53a1,1,0,0,1,1,1v0a2.06,2.06,0,0,1-2.06,2.06h0a2.06,2.06,0,0,1-2.06-2.06v0a1,1,0,0,1,1-1Z"/><circle class="cls-4" cx="43.2" cy="81.91" r="0.45"/><circle class="cls-4" cx="60.62" cy="81.91" r="0.45"/></g></g></svg>