<svg xmlns="http://www.w3.org/2000/svg" xmlns:xlink="http://www.w3.org/1999/xlink" viewBox="0 0 103.87 103.87"><defs><style>.cls-1{fill:none;}.cls-2{fill:#ef966f;}.cls-3{fill:#846445;}.cls-4{fill:#564423;}.cls-5{fill:#fff;}.cls-6{fill:#65cec6;}.cls-7{fill:#79dfd9;}.cls-8{clip-path:url(#clip-path);}.cls-9{fill:#e5e4e2;}.cls-10{fill:#d4cabd;}.cls-11{fill:#67cec6;}.cls-12{fill:#4bb7ae;}.cls-13{fill:#56d3ca;}.cls-14{clip-path:url(#clip-path-2);}.cls-15{fill:#00d3c6;}.cls-16{fill:#00c4b5;}</style><clipPath id="clip-path"><path class="cls-1" d="M57.6,73.39c-4.64-.71-9.07-.9-13.67-1.36a22.07,22.07,0,0,0,3.71,12.5,76.71,76.71,0,0,0,9.45,2,28.07,28.07,0,0,0,6.85.25,15.34,15.34,0,0,0,6.38-2.37,29,29,0,0,0,2.58-7.67A86.33,86.33,0,0,0,57.6,73.39Z"/></clipPath><clipPath id="clip-path-2"><path class="cls-1" d="M42.18,71.85a16.82,16.82,0,0,1-3.44,1.45c-1.55.51-3.17-.39-4.55-1.25l-2.78-1.74A9.46,9.46,0,0,0,28,68.76a4.68,4.68,0,0,0-5.31,5.49c.15,0,.3,0,.46,0a8.65,8.65,0,0,0,3.39,2.81,10.58,10.58,0,0,0,6,.72c1.18-.18,2.1-.69,3.22-.26a5.18,5.18,0,0,1,2.81,3.64c.42,1.53.48,3.15.91,4.68a12.08,12.08,0,0,0,4.4,6.19,19.61,19.61,0,0,0,7,3.21,9.27,9.27,0,0,0,3.73.34A1.64,1.64,0,0,0,55.76,95c.41-.68-.13-1.52-.68-2.09-2.61-2.71-6.15-4.81-7.43-8.35l.72.2A23.41,23.41,0,0,1,43.93,72Z"/></clipPath></defs><g id="Layer_2" data-name="Layer 2"><g id="Layer_2-2" data-name="Layer 2"><circle class="cls-2" cx="51.94" cy="51.94" r="51.94"/><circle class="cls-3" cx="51.94" cy="51.94" r="44.22"/><circle class="cls-4" cx="51.94" cy="51.94" r="36.8"/><path class="cls-5" d="M64.19,54.35a2.19,2.19,0,0,1-1.48-.54,1.67,1.67,0,0,1-.6-1.28V48.1a1.66,1.66,0,0,1,.6-1.28,2.14,2.14,0,0,1,1.48-.54,2.11,2.11,0,0,1,1.48.55,1.66,1.66,0,0,1,.59,1.27v4.43a1.64,1.64,0,0,1-.6,1.28A2.14,2.14,0,0,1,64.19,54.35Zm0-7.1a.9.9,0,0,0-.63.24.79.79,0,0,0-.26.59v4.43a.79.79,0,0,0,.26.59.9.9,0,0,0,.63.24.88.88,0,0,0,.62-.24.76.76,0,0,0,.27-.59V48.08a.8.8,0,0,0-.27-.6A.93.93,0,0,0,64.15,47.25Z"/><rect class="cls-5" x="67.32" y="46.93" width="1.17" height="15.25" transform="translate(24.98 -21.24) rotate(21.7)"/><path class="cls-5" d="M71.69,62.53A2.19,2.19,0,0,1,70.2,62a1.67,1.67,0,0,1-.59-1.28V56.29a1.64,1.64,0,0,1,.6-1.28,2.27,2.27,0,0,1,3,0,1.67,1.67,0,0,1,.59,1.28v4.42a1.64,1.64,0,0,1-.6,1.28A2.15,2.15,0,0,1,71.69,62.53Zm0-7.09a.87.87,0,0,0-.62.23.76.76,0,0,0-.27.59v4.43a.78.78,0,0,0,.27.6.91.91,0,0,0,.62.23,1,1,0,0,0,.63-.23.78.78,0,0,0,.27-.6V56.26a.76.76,0,0,0-.27-.59A.91.91,0,0,0,71.64,55.44Z"/><rect class="cls-5" x="78.3" y="51.41" width="1.17" height="7.07"/><rect class="cls-5" x="78.3" y="51.02" width="1.17" height="7.07" transform="translate(133.44 -24.33) rotate(90)"/><path class="cls-5" d="M51.35,62.49a8.11,8.11,0,0,1-5.55-2,6.2,6.2,0,0,1-2.23-4.77V39.14a6.2,6.2,0,0,1,2.24-4.8,8.13,8.13,0,0,1,5.54-2,8,8,0,0,1,5.53,2,6.24,6.24,0,0,1,2.22,4.79V55.7a6.16,6.16,0,0,1-2.24,4.78A8.07,8.07,0,0,1,51.35,62.49ZM51.19,36a3.39,3.39,0,0,0-2.33.87,2.92,2.92,0,0,0-1,2.22V55.63a2.9,2.9,0,0,0,1,2.21,3.37,3.37,0,0,0,2.33.87,3.43,3.43,0,0,0,2.33-.86,2.89,2.89,0,0,0,1-2.22V39a2.87,2.87,0,0,0-1-2.22A3.39,3.39,0,0,0,51.19,36Z"/><path class="cls-5" d="M32.88,62a7.89,7.89,0,0,1-5.45-2,6.09,6.09,0,0,1-2.19-4.69V52.6a6.12,6.12,0,0,1,1.93-4.46,6.81,6.81,0,0,1,1.3-1l1.25-.77-1.25-.77A6.42,6.42,0,0,1,26.15,43a5.79,5.79,0,0,1-.51-2.6V38.8a6.09,6.09,0,0,1,1.8-4.49,7.35,7.35,0,0,1,5.44-2.05h.41a7.46,7.46,0,0,1,5.47,2,6.16,6.16,0,0,1,1.8,4.5v1.62a5.78,5.78,0,0,1-1.75,4.3,6.58,6.58,0,0,1-1.1.87l-1.22.76,1.22.77A7.52,7.52,0,0,1,40.37,50,5.38,5.38,0,0,1,41,52.6v2.73A6.06,6.06,0,0,1,38.75,60a8,8,0,0,1-5.46,2Zm.22-13.28A3.11,3.11,0,0,0,30,50.51a6.62,6.62,0,0,0-.47,2.69v1.43a3.49,3.49,0,0,0,1.17,2.74,3.64,3.64,0,0,0,2.34.9h.08a3.42,3.42,0,0,0,3.16-2,3.57,3.57,0,0,0,.35-1.61V53.2c0-1.94-.52-3.28-1.56-4A3.53,3.53,0,0,0,33.1,48.75Zm0-13.21a3.67,3.67,0,0,0-2.36.72,3.26,3.26,0,0,0-1.1,1.55,6.07,6.07,0,0,0-.25,2.24,5.64,5.64,0,0,0,.78,3.07,3.36,3.36,0,0,0,2.93,1.3,3.35,3.35,0,0,0,3-1.38,5.15,5.15,0,0,0,.75-3c0-2.25-.86-3.68-2.44-4.27A3.48,3.48,0,0,0,33.1,35.54Z"/><path class="cls-6" d="M32.53,81.1a10.32,10.32,0,0,0-3.29,1.11c-1.61,1-2.44,2.84-3.2,4.58-.22.51-.42,1.19,0,1.58s1.31,0,1.92-.36c2.83-1.66,6.49.15,9.66-.65a5.61,5.61,0,0,0,3.53-2.7,5.47,5.47,0,0,0-2.15-7,1.75,1.75,0,0,0-1.58-.2,2.4,2.4,0,0,0-.9.81,7,7,0,0,1-1.56,2A7.41,7.41,0,0,1,32.53,81.1Z"/><path class="cls-7" d="M42.18,71.85a16.82,16.82,0,0,1-3.44,1.45c-1.55.51-3.17-.39-4.55-1.25l-2.78-1.74A9.46,9.46,0,0,0,28,68.76a4.68,4.68,0,0,0-5.31,5.49c.15,0,.3,0,.46,0a8.65,8.65,0,0,0,3.39,2.81,10.58,10.58,0,0,0,6,.72c1.18-.18,2.1-.69,3.22-.26a5.18,5.18,0,0,1,2.81,3.64c.42,1.53.48,3.15.91,4.68a12.08,12.08,0,0,0,4.4,6.19,19.61,19.61,0,0,0,7,3.21,9.27,9.27,0,0,0,3.73.34A1.64,1.64,0,0,0,55.76,95c.41-.68-.13-1.52-.68-2.09-2.61-2.71-6.15-4.81-7.43-8.35l.72.2A23.41,23.41,0,0,1,43.93,72Z"/><g class="cls-8"><path class="cls-9" d="M57.6,73.39c-4.64-.71-9.07-.9-13.67-1.36a22.07,22.07,0,0,0,3.71,12.5,76.71,76.71,0,0,0,9.45,2,28.07,28.07,0,0,0,6.85.25,15.34,15.34,0,0,0,6.38-2.37,29,29,0,0,0,2.58-7.67A86.33,86.33,0,0,0,57.6,73.39Z"/><path class="cls-10" d="M52.24,87.36c-2.3-5.54-2.59-10.84-2.29-16.74a.19.19,0,0,0-.37-.05c-1.22,5.62-.07,11.71,2.09,17,.15.34.71.19.57-.16Z"/><path class="cls-10" d="M53.82,86.36a43.27,43.27,0,0,1-.74-6.22,0,0,0,1,0-.07,0,31.93,31.93,0,0,0,.4,6.33c0,.27.46.16.41-.11Z"/><path class="cls-10" d="M56.73,89.06a81.51,81.51,0,0,1,1.63-13.57.21.21,0,0,0-.41-.11A42.46,42.46,0,0,0,56.1,89.06a.32.32,0,0,0,.63,0Z"/><path class="cls-10" d="M58.92,88.17c.56-4.11,1.74-8,2.65-12,0-.18-.24-.32-.32-.13a45.93,45.93,0,0,0-2.94,12c-.06.4.55.57.61.17Z"/><path class="cls-10" d="M60.78,88.07c.83-3.22,1.89-6.47,2.4-9.75a.19.19,0,0,0-.36-.1,100.22,100.22,0,0,0-2.6,9.69.29.29,0,0,0,.56.16Z"/><path class="cls-10" d="M62.62,88a23.54,23.54,0,0,0,3.65-8.76.13.13,0,0,0-.25-.07,50.57,50.57,0,0,1-3.87,8.55c-.18.3.28.57.47.28Z"/><path class="cls-10" d="M65.49,87.2c2-2.49,4-5.66,4.29-8.93,0-.24-.31-.24-.39,0-1.25,3.08-2.2,5.93-4.28,8.6-.21.27.16.65.38.38Z"/><path class="cls-10" d="M68.52,86.35A22.57,22.57,0,0,0,72,77.92c0-.17-.22-.32-.3-.13A85.85,85.85,0,0,1,68,86.06a.28.28,0,0,0,.49.29Z"/><path class="cls-10" d="M49.76,86.15c-1.53-3.72-1.43-7.1-.92-11,0-.23-.3-.24-.37-.05-1.3,3.56-.67,7.77.72,11.21.14.35.71.19.57-.16Z"/></g><path class="cls-7" d="M80.53,87.42c-.09-1-1.12-1.68-2-2.26a15,15,0,0,1-2.76-2.39.46.46,0,0,1-.15-.26.54.54,0,0,1,.14-.33A6.53,6.53,0,0,0,77.08,79c.12-.92-1.08-1.07-2-1.42s-1.48-.58-2.23-.84c-.61,2.77-2.74,7.77-2.6,7.66A16.44,16.44,0,0,0,79.91,88a.65.65,0,0,0,.56-.18A.59.59,0,0,0,80.53,87.42Z"/><path class="cls-9" d="M28.88,71a1.64,1.64,0,1,1-1.64-1.64A1.64,1.64,0,0,1,28.88,71Z"/><path d="M28.18,71a1.29,1.29,0,1,1-1.29-1.29A1.29,1.29,0,0,1,28.18,71Z"/><path class="cls-11" d="M53.17,91.08c-5.72,3.58-8.81-4-13.54-4.72a12.15,12.15,0,0,0,4.24,5.69,19.61,19.61,0,0,0,7,3.21,9.27,9.27,0,0,0,3.73.34A1.64,1.64,0,0,0,55.76,95c.41-.68-.13-1.52-.68-2.09S53.83,91.67,53.17,91.08Z"/><path class="cls-11" d="M78.55,85.16c-.17-.11-.33-.23-.49-.35-1.7.47-3.94.43-5.78.94A15.94,15.94,0,0,0,79.91,88a.65.65,0,0,0,.56-.18.59.59,0,0,0,.06-.35C80.44,86.39,79.41,85.74,78.55,85.16Z"/><path class="cls-12" d="M22.65,74.34a6.06,6.06,0,0,0,3.74-.63c.17-.1.05-.41-.15-.33a8.64,8.64,0,0,1-3.59.62c-.22,0-.2.31,0,.34Z"/><path class="cls-12" d="M26.26,73.72a.92.92,0,0,1,.33,0c.11,0,.2.08.31.1s.4-.21.22-.37a1,1,0,0,0-.95-.07.18.18,0,0,0,.09.35Z"/><path class="cls-13" d="M73.53,83.35l-.51.33a1.24,1.24,0,0,0,.3,2.26,2.45,2.45,0,0,0,2.09-.31A1.43,1.43,0,0,0,76,84.14a1.48,1.48,0,0,0-.37-.64,1.35,1.35,0,0,0-1-.4A1.26,1.26,0,0,0,73.4,84,1.28,1.28,0,0,0,74,85.43l-.15-.11-.33-.56,0,0,0-.34v0l0-.34a.84.84,0,0,1,.54-.63h0l-.23,0,.33,0a1.27,1.27,0,0,1-.39,0l.33,0-.16,0,.3,2.25.49-.36a1.32,1.32,0,0,0,.56-.73,1.28,1.28,0,0,0-.12-.94,1.24,1.24,0,0,0-1.67-.43Z"/><path class="cls-13" d="M76.27,82.85a1.16,1.16,0,0,0-.7.19,1.35,1.35,0,0,0-.59.78,1.18,1.18,0,0,0,0,.59.87.87,0,0,0,.2.38.84.84,0,0,0,.31.28,1.09,1.09,0,0,0,.56.15l.31,0a1.17,1.17,0,0,0,.83-.34,1.1,1.1,0,0,0,.3-.52,1.3,1.3,0,0,0-.12-.9.8.8,0,0,0-.3-.33.9.9,0,0,0-.4-.21,1.09,1.09,0,0,0-.62,0l-.3.1,1.36.77h0l0,.29V84l0,.29s0,0,0,0l-.11.26a.43.43,0,0,1,0-.07l-.17.22,0,0-.21.16.05,0-.25.11,0,0a1,1,0,0,0,.61-.47l.11-.25a.81.81,0,0,0,0-.41.48.48,0,0,0-.07-.26.72.72,0,0,0-.21-.33L76.79,83a1,1,0,0,0-.52-.14Z"/><path class="cls-13" d="M73.08,83.21l0,0a1.18,1.18,0,0,0-.61-.16,1.22,1.22,0,0,0-.62.16l0,0a.87.87,0,0,0-.37.34.66.66,0,0,0-.17.29.94.94,0,0,0-.11.5l0,.35.14.31a.91.91,0,0,0,.33.37.72.72,0,0,0,.29.17,1,1,0,0,0,.51.11l.35,0,.31-.13a1.1,1.1,0,0,0,.37-.34.66.66,0,0,0,.17-.29,1,1,0,0,0,.11-.51l0-.35-.13-.31a1.25,1.25,0,0,0-.47-.47Z"/><g class="cls-14"><path class="cls-13" d="M30.3,67.54a2.32,2.32,0,0,0-1.65,1.56,3.07,3.07,0,0,0-.11,1.75,3.12,3.12,0,0,0,1.36,1.86l.21.14a1.72,1.72,0,0,1-.81-1c-.09.29.36.83.55,1.08a2.84,2.84,0,0,0,3.08,1A3,3,0,0,0,35,71a4.12,4.12,0,0,0-2.85-3.76,2.4,2.4,0,0,0-2.89,1.64,3.14,3.14,0,0,0,.22,2.42,4,4,0,0,0,.24.46c.28.45-.15-.58,0-.11l-.09-.72v.14l.1-.72,0,.1.7-1.19c-.18.2-.08.13.31-.21L32,68.66h-.1l1.33.36c.36.31.47.39.32.25a2.59,2.59,0,0,0-.55-.44,3.19,3.19,0,0,0-.75-.34,5.82,5.82,0,0,0-.82-.13c-.2,0-.56-.14.14,0-.48-.11.49.25.66.49s.25.6.14.23a3.08,3.08,0,0,0-.68-1.19,1.44,1.44,0,0,0-1.41-.37Z"/><path class="cls-13" d="M33.16,71.32a1.52,1.52,0,0,0-.54.53,1.25,1.25,0,0,0-.18.41,1.29,1.29,0,0,0,0,.4v0l0,.35a1.25,1.25,0,0,0,.27.54,1,1,0,0,0,.38.34,1.36,1.36,0,0,0,.33.14,2.57,2.57,0,0,0,.4.06,1.17,1.17,0,0,0,.45-.06,1.41,1.41,0,0,0,.53-.28,1.31,1.31,0,0,0,.4-.44,1,1,0,0,0,.16-.49.92.92,0,0,0,0-.52L35.2,72a.87.87,0,0,0-.34-.37.61.61,0,0,0-.29-.17.94.94,0,0,0-.5-.11l-.35,0a1.42,1.42,0,0,0-.58.34s0,0,0,0l.27-.21-.06,0,.32-.13-.07,0,.36-.05h-.07l.35.05-.06,0,.32.13h0l.47.48v0l.13.32s0,0,0,0l0,.36v-.06L35,73s0,0,0,0l-.13.32a.17.17,0,0,1,0-.05l-.21.28,0,0-.27.21,0,0-.33.13h0a1.4,1.4,0,0,0,.6-.35l.21-.28a1.37,1.37,0,0,0,.19-.68,1.18,1.18,0,0,0-.12-.53,1,1,0,0,0-.28-.43,1.06,1.06,0,0,0-.44-.29,1,1,0,0,0-.52-.11,1.37,1.37,0,0,0-.69.18Z"/><path class="cls-13" d="M34.56,71.47a1.8,1.8,0,0,0,.77,3A2.06,2.06,0,0,0,37.21,74a.65.65,0,0,0,.16-.13c0,.07-.28.18-.09.08a.94.94,0,0,1-.59.11c-.08,0-.46-.19-.27,0l1.32-3.12a6.51,6.51,0,0,0-2.05-.32,1.82,1.82,0,0,0-1.79,2.07,1.74,1.74,0,0,0,.68,1.19,2,2,0,0,0,1.59.33c-.22,0-.26,0,0,0h.6c.44,0-.37-.07.07,0a1.74,1.74,0,0,0,2-1,1.71,1.71,0,0,0-.7-2.13,2.47,2.47,0,0,0-2.36,0,2.22,2.22,0,0,0-.82.76,1.74,1.74,0,0,0-.14.27l0,.09c.88-.89,1.47-.6,1.76.87a1.27,1.27,0,0,0-2-1.54Z"/><path class="cls-13" d="M37.15,75.62a1,1,0,0,0,.54-.12,1,1,0,0,0,.45-.29,1.09,1.09,0,0,0,.29-.45,1,1,0,0,0,.12-.54l0-.38a1.39,1.39,0,0,0-.36-.62L37.86,73a1.48,1.48,0,0,0-.71-.19,1,1,0,0,0-.55.12,1.2,1.2,0,0,0-.45.29,1.06,1.06,0,0,0-.29.46,1,1,0,0,0-.12.54l0,.37a1.43,1.43,0,0,0,.36.62l.29.22a1.35,1.35,0,0,0,.71.19Z"/><path class="cls-13" d="M31.89,72.15a1.67,1.67,0,0,0-.7.64,1.34,1.34,0,0,0,0,1.34,1.22,1.22,0,0,0,1.62.43,1.19,1.19,0,0,0,.57-1.35v.56l0-.16a1.08,1.08,0,0,0-.1-.79,1,1,0,0,0-1.42-.37l-.2.16a1,1,0,0,0-.27.45,1.14,1.14,0,0,0-.06.73l0-.28v0l0-.28v0l.1-.25a.05.05,0,0,1,0,0l.16-.21v0l.21-.17s0,0,0,0l.25-.1H32l.28,0h-.05l.28,0h0l.25.11,0,0,.21.17,0-.05.17.22v0l.1.26a.13.13,0,0,1,0-.06l0,.28v-.08l0,.28,0-.09-.11.26,0,0-.16.21A.23.23,0,0,1,33,74l-.22.16L33,74a1,1,0,0,0,.5-.64,1.08,1.08,0,0,0-1.58-1.22Z"/><path class="cls-13" d="M44.78,85.05a1.34,1.34,0,0,0-.93,1.33,1.52,1.52,0,0,0,.42,1.05,1.82,1.82,0,0,0,1.16.47,1.49,1.49,0,0,0,1.78-1.35,1.78,1.78,0,0,0-.6-1.17l-.23-.26a1.75,1.75,0,0,0-.73-.46,1.23,1.23,0,0,0-1.51,1.52,1.71,1.71,0,0,0,.4.67l.17.15c.13.12.27.23.39.35l-.2-.24,0,0-.16-.61v0l.36-.86,0,0,.24-.19,0,0,.29-.12-.28.07.32,0h-.3l.31,0-.17,0,.28.12s-.41-.2-.43-.17.43.3.31.16c.1.15.14.19.09.12s0,0,.06.14c0-.1,0,0,0,.12a.57.57,0,0,1-.07.29.85.85,0,0,0-.95-1.24Z"/><path class="cls-13" d="M47.18,86.89a1.46,1.46,0,0,0-1.23.7,1.48,1.48,0,0,0,0,1.28,1.65,1.65,0,0,0,.73.81,2.1,2.1,0,0,0,.78.21c.25,0,.14,0,0,0a6.13,6.13,0,0,0,.92.47,1.88,1.88,0,0,0,2.44-1.9,2.52,2.52,0,0,0-3.27-2.25,2,2,0,0,0-1.5,2.21c.22,1,1.35,1.36,2.25,1.36a1.49,1.49,0,0,0,1.46-1.45,1.74,1.74,0,0,0-.05-.39,1.48,1.48,0,0,0-1.41-1.06c.15,0,.14,0,0,0,.11.06.11,0,0,0l.67.89,0-.1-.14,1.14a.58.58,0,0,1-.4.31c.14,0,.16,0,0,0s-.1,0,.05,0a.29.29,0,0,1-.2-.05c-.1,0-.08,0,0,0a.47.47,0,0,1-.19-.18.64.64,0,0,1-.05-.49c-.3,1.32.66-1,1-.64a1.83,1.83,0,0,0-.57-.25,2.46,2.46,0,0,0-.6-.12h-.3l.51.33.17.63v-.09l-.17.62,0-.09-.74.57.13,0A1.22,1.22,0,0,0,48.38,88a1.2,1.2,0,0,0-1.2-1.06Z"/><path class="cls-13" d="M50.33,88.67c-.18.43-.39.86-.54,1.29a1.29,1.29,0,0,0,.33,1.28,1.37,1.37,0,0,0,1.28.34A2,2,0,0,0,52.83,89a1.32,1.32,0,0,0-.56-.73,1.21,1.21,0,0,0-1.79,1.37c0,.13,0,.08,0-.16,0,.13,0,.08,0-.16,0,.12,0,.07.07-.14a.93.93,0,0,1,0,.1c.14-.18.17-.22.09-.13l.12-.1c-.11.06-.06,0,.16-.06l-.11,0,.35,0h-.06l1.31,1.31c0-.37-.07-.75-.1-1.12a1.07,1.07,0,0,0-.76-1,1.06,1.06,0,0,0-1.17.47Z"/><path class="cls-13" d="M48.63,91.73h.07l.34,0a1,1,0,0,0,.49-.1.62.62,0,0,0,.28-.17,1,1,0,0,0,.33-.35l0-.06.14-.32a1,1,0,0,0,0-.55.69.69,0,0,0-.09-.34.75.75,0,0,0-.17-.3,1.16,1.16,0,0,0-.38-.35l-.33-.14-.36,0a1,1,0,0,0-.52.11.58.58,0,0,0-.3.18.64.64,0,0,0-.25.24,1,1,0,0,0-.24.46l0,.36,0,.37.14.32a.92.92,0,0,0,.35.38,1.09,1.09,0,0,0,.46.25Z"/><path class="cls-13" d="M46.73,85.11A1.34,1.34,0,0,0,46.94,87a2.49,2.49,0,0,0,2,.17,1.24,1.24,0,0,0,.73-1.79,2.79,2.79,0,0,0-1.53-1.23,1.24,1.24,0,0,0-1.5.85,1.26,1.26,0,0,0,.85,1.5c.23.09-.23-.14,0,0l.09.05-.11-.08a2.11,2.11,0,0,0,.15.15l-.1-.13.07.12.73-1.79a3.09,3.09,0,0,0-.77.28.91.91,0,0,0-.22.11c.42-.27,1.18.1,1.11.6a.92.92,0,0,0-.52-1,.91.91,0,0,0-1.11.36Z"/><path class="cls-13" d="M46.23,87.76l0-.05-.2-.26a1,1,0,0,0-.41-.26.62.62,0,0,0-.32-.09.89.89,0,0,0-.51,0H44.7l-.33.14a1,1,0,0,0-.38.35.64.64,0,0,0-.17.3.67.67,0,0,0-.1.34,1,1,0,0,0,0,.54l.14.33.21.27a1,1,0,0,0,.44.28.67.67,0,0,0,.34.09.55.55,0,0,0,.36,0,1,1,0,0,0,.51-.16l.27-.21.21-.27.14-.33a1,1,0,0,0,0-.54,1,1,0,0,0-.16-.51Z"/></g><path class="cls-15" d="M40.1,71.24a6.24,6.24,0,0,0,.81,3.37c.62.92,1.58,1.6,1.9,2.72a10,10,0,0,0,.41,1.82,3.48,3.48,0,0,0,2.15,1.42c5.67,2,11.4,4.4,17.47,2.63a22.81,22.81,0,0,1,3.4-.92,15.45,15.45,0,0,1,4.23.3,9.68,9.68,0,0,0,4.22-.08,3.74,3.74,0,0,0,2.76-2.92c.08-.59.22-1,.35-1.54-3-.58-5.35-2.84-7.92-4.52C66.22,71.14,62,69.9,57.74,68.78a29.52,29.52,0,0,0-6.09-1.17,10.78,10.78,0,0,0-6,1.21c-.87.49-1.64,1.14-2.5,1.62A4.62,4.62,0,0,1,40.1,71.24Z"/><path class="cls-16" d="M49,78.32a1.44,1.44,0,0,0-.34.6,1.18,1.18,0,0,0,.19.85,4,4,0,0,0,2.26,1.52,13.09,13.09,0,0,0,3.28.66,2.72,2.72,0,0,0,2.23-.59,2.46,2.46,0,0,0,.31-2.29,10.73,10.73,0,0,1-.6-2.34c0-.43.07-.87,0-1.3a1.13,1.13,0,0,0-.71-1c-.38-.11-.78.08-1.17,0-.56-.09-1-.84-1.58-.78s-.78.69-1.09,1.09C50.88,76,49.93,77.13,49,78.32Z"/><path class="cls-16" d="M59.18,79.22a2.48,2.48,0,0,0,.59,1.66,1.87,1.87,0,0,0,1.78.25c.6-.17,1.15-.5,1.75-.69a7,7,0,0,1,2.33-.24,2.62,2.62,0,0,0,1.67-.3.52.52,0,0,0,.17-.22c.08-.23-.17-.43-.38-.55A9.35,9.35,0,0,1,65,77.69a3,3,0,0,1-1-2.26,1.2,1.2,0,0,0,0-.73.84.84,0,0,0-.53-.31c-.92-.23-3.4-.36-4.2.37S59.07,78.13,59.18,79.22Z"/><path class="cls-16" d="M66,75.55a2.29,2.29,0,0,0,1.2,1.66c.43.23.92.31,1.35.54a2.25,2.25,0,0,1,1,1c.34.72.39,1.72,1.12,2a1.84,1.84,0,0,0,1.37-.17l3.1-1.22a2,2,0,0,0,1.33-1.05,10,10,0,0,1-3.13-.48,3.34,3.34,0,0,1-2.15-2.18,3.47,3.47,0,0,0-.22-.76,1.87,1.87,0,0,0-1.24-.75C68.21,73.75,65.58,72.8,66,75.55Z"/><path class="cls-16" d="M75.16,80.28a13.28,13.28,0,0,0-1.92.68.63.63,0,0,0-.39.3.45.45,0,0,0,.16.51,1,1,0,0,0,.54.19,2.75,2.75,0,0,0,2.85-2,3.13,3.13,0,0,0-1.65.5"/><path class="cls-16" d="M56.6,73.23a.86.86,0,0,0,.5.19,1.25,1.25,0,0,0,.41-.18c.6-.31,1.33-.12,2-.23s1.56-.67,2.32-.44c.29.09.6.29.88.18s.36-.45.41-.74a1,1,0,0,0-.14-.92,1,1,0,0,0-.36-.2l-2-.78a7.52,7.52,0,0,0-1.39-.45,8,8,0,0,1-2.74-.55c-.49.49-1.56,1.59-1.58,2.34S56,72.83,56.6,73.23Z"/><path class="cls-16" d="M64.8,71.6a1.85,1.85,0,0,1-.5.68,1.59,1.59,0,0,0-.46.7.57.57,0,0,0,.35.68.82.82,0,0,0,.41-.06l2.7-.86a5.61,5.61,0,0,0-2.48-1"/><path class="cls-16" d="M47,77a4.59,4.59,0,0,0,1-.56.26.26,0,0,0,.09-.17c0-.12-.1-.21-.2-.27a7.1,7.1,0,0,0-2.35-.56,5.28,5.28,0,0,1-2-.84c.17.67.34,1.34.52,2a4.9,4.9,0,0,1,.22,1.47,1,1,0,0,0,.05.51c.17.3.61.25.94.17.52-.14,1.34-.19,1.53-.64S46.33,77.46,47,77Z"/><path class="cls-16" d="M50,73.39a4.83,4.83,0,0,1-2.35,1,4.78,4.78,0,0,1-1.34-.28,12.86,12.86,0,0,0-2.59-.49,4,4,0,0,1-1.46-.3,1.1,1.1,0,0,1-.62-1.23,6.43,6.43,0,0,0,3.54-1.7,9,9,0,0,1,1.3-1.17,1.54,1.54,0,0,1,1.65-.07,5.25,5.25,0,0,1,.6.65,1.9,1.9,0,0,0,1.82.52,1.13,1.13,0,0,1,.72-.06.82.82,0,0,1,.27.25c.36.45,1.06,1,1.14,1.6A20.33,20.33,0,0,0,50,73.39Z"/><path class="cls-16" d="M50.66,68.85l3,.08a.51.51,0,0,1,.25.06c.7.53.09,2.1-.85,1.82S51.59,69.25,50.66,68.85Z"/></g></g></svg>