<svg xmlns="http://www.w3.org/2000/svg" xmlns:xlink="http://www.w3.org/1999/xlink" viewBox="0 0 103.87 103.87"><defs><style>.cls-1{fill:none;}.cls-2{fill:#d86df2;}.cls-3{fill:#744587;}.cls-4{fill:#592438;}.cls-5{fill:#fff;}.cls-6{clip-path:url(#clip-path);}.cls-7{fill:#e5e4e2;}.cls-8{fill:#d4cabd;}.cls-9{fill:#006096;}.cls-10{fill:#0075a7;}.cls-11{fill:#f9f6f3;}.cls-12{fill:#00a0cb;}.cls-13{fill:#00b4d7;}.cls-14{fill:#42cfe6;}</style><clipPath id="clip-path"><path class="cls-1" d="M64.57,90.18a10.11,10.11,0,0,0,2-1.22c2-1.58,3.34-4.08,5-6.11a56.22,56.22,0,0,1,5.16-5.4,23.79,23.79,0,0,1,5.38-3.82C84,72.7,86,72.05,88,72.77a3.59,3.59,0,0,0,1,3,5.42,5.42,0,0,0,2.47.74A4.52,4.52,0,0,1,94,78.38c0,.05.1,0,.09-.06A6.14,6.14,0,0,0,93,75.86c-.38-.46-.8-.84-1.16-1.32a4.84,4.84,0,0,1-.93-3,2.8,2.8,0,0,1,1.07-2.23s0-.14,0-.14c-1.45,0-2.4,1.16-3.45,2.19a4.69,4.69,0,0,0-3.08-2.33A11.66,11.66,0,0,0,82,68.68a21.57,21.57,0,0,0-3.81.67L66.47,72.12a36.76,36.76,0,0,1-5.82,1.39,24.53,24.53,0,0,1-5.34-.66c-2.37-.39-4.75-.78-7.12-1.4a59.16,59.16,0,0,0-6.9-1.76c-7.35-1-14.11,2.87-21.39,2.52-2-.1-4.37-.4-5.41,1.62-.22.09-.52.19-.75.26a.49.49,0,0,0-.27.67c0,1.75,1,3.32,2,4.65a34.73,34.73,0,0,0,9.87,9.28,44,44,0,0,0,5.19,2.49c3.39,1.45,7.29,3.5,10.78,3.54s7-.77,10.52-1.4A68.47,68.47,0,0,0,62.53,91,18.88,18.88,0,0,0,64.57,90.18Z"/></clipPath></defs><g id="Layer_2" data-name="Layer 2"><g id="Layer_2-2" data-name="Layer 2"><circle class="cls-2" cx="51.94" cy="51.94" r="51.94"/><circle class="cls-3" cx="51.94" cy="51.94" r="44.22"/><circle class="cls-4" cx="51.94" cy="51.94" r="36.8"/><path class="cls-5" d="M66.17,50.43a2.19,2.19,0,0,1-1.49-.54,1.67,1.67,0,0,1-.59-1.28V44.19a1.64,1.64,0,0,1,.6-1.28,2.27,2.27,0,0,1,3,0,1.67,1.67,0,0,1,.59,1.28v4.42a1.64,1.64,0,0,1-.6,1.28A2.15,2.15,0,0,1,66.17,50.43Zm0-7.09a.87.87,0,0,0-.62.23.76.76,0,0,0-.27.59v4.43a.77.77,0,0,0,.27.6.91.91,0,0,0,.62.23,1,1,0,0,0,.63-.23.77.77,0,0,0,.27-.6V44.16a.76.76,0,0,0-.27-.59A.91.91,0,0,0,66.12,43.34Z"/><rect class="cls-5" x="69.3" y="43.01" width="1.17" height="15.25" transform="translate(23.67 -22.25) rotate(21.7)"/><path class="cls-5" d="M73.67,58.61a2.17,2.17,0,0,1-1.49-.54,1.66,1.66,0,0,1-.59-1.27V52.37a1.64,1.64,0,0,1,.6-1.28,2.14,2.14,0,0,1,1.48-.54,2.12,2.12,0,0,1,1.47.54,1.67,1.67,0,0,1,.6,1.28V56.8a1.64,1.64,0,0,1-.6,1.27A2.15,2.15,0,0,1,73.67,58.61Zm0-7.09a.91.91,0,0,0-.62.23.76.76,0,0,0-.27.59v4.44a.76.76,0,0,0,.27.59,1,1,0,0,0,1.24,0,.74.74,0,0,0,.28-.59V52.34a.76.76,0,0,0-.27-.59A1,1,0,0,0,73.62,51.52Z"/><rect class="cls-5" x="80.27" y="47.49" width="1.17" height="7.07"/><rect class="cls-5" x="80.27" y="47.1" width="1.17" height="7.07" transform="translate(131.5 -30.22) rotate(90)"/><path class="cls-5" d="M34.86,58.84a7.92,7.92,0,0,1-5.46-2,6.11,6.11,0,0,1-2.18-4.69V49.41A6.12,6.12,0,0,1,29.15,45a6.51,6.51,0,0,1,1.3-1l1.24-.77-1.24-.77a6.42,6.42,0,0,1-2.32-2.56,5.79,5.79,0,0,1-.51-2.6V35.61a6.05,6.05,0,0,1,1.8-4.49,7.35,7.35,0,0,1,5.44-2.05h.41a7.42,7.42,0,0,1,5.46,2,6.13,6.13,0,0,1,1.81,4.5v1.62a5.78,5.78,0,0,1-1.75,4.3,7,7,0,0,1-1.1.87l-1.23.76,1.23.77a7.52,7.52,0,0,1,2.66,2.87,5.38,5.38,0,0,1,.59,2.61v2.73a6.09,6.09,0,0,1-2.21,4.71,8,8,0,0,1-5.46,2Zm.22-13.28A3.11,3.11,0,0,0,32,47.32,6.45,6.45,0,0,0,31.52,50v1.43a3.5,3.5,0,0,0,1.18,2.74,3.62,3.62,0,0,0,2.34.9h.08a3.42,3.42,0,0,0,3.16-2,3.57,3.57,0,0,0,.35-1.61V50c0-1.94-.53-3.28-1.56-4A3.53,3.53,0,0,0,35.08,45.56Zm0-13.21a3.67,3.67,0,0,0-2.36.72,3.19,3.19,0,0,0-1.1,1.55,6.27,6.27,0,0,0-.26,2.24,5.73,5.73,0,0,0,.79,3.07,3.36,3.36,0,0,0,2.93,1.3,3.35,3.35,0,0,0,3-1.38,5.15,5.15,0,0,0,.75-3c0-2.25-.86-3.68-2.44-4.27A3.48,3.48,0,0,0,35.08,32.35Z"/><path class="cls-5" d="M53,58.57a7.45,7.45,0,0,1-5.41-2.1,6.46,6.46,0,0,1-2-4.79v-.31l4.24-.29.07.62a3.15,3.15,0,0,0,1.94,2.82,2.52,2.52,0,0,0,1.06.23c3,0,3.59-1.86,3.59-3.42V43.82a3.2,3.2,0,0,0-1.28-2.6,3,3,0,0,0-4,.63,3.64,3.64,0,0,0-.64,2v.38H46.05V28.41H60.48v3.75h-10v7.65l1.46-1.05a5.13,5.13,0,0,1,1.23-.65,4.64,4.64,0,0,1,1.62-.25,5.62,5.62,0,0,1,4.75,2,8,8,0,0,1,1.31,4.89v6.61a6.74,6.74,0,0,1-2.27,5.23A8,8,0,0,1,53,58.57Z"/><g class="cls-6"><path class="cls-7" d="M64.57,90.18a10.11,10.11,0,0,0,2-1.22c2-1.58,3.34-4.08,5-6.11a56.22,56.22,0,0,1,5.16-5.4,23.79,23.79,0,0,1,5.38-3.82C84,72.7,86,72.05,88,72.77a3.59,3.59,0,0,0,1,3,5.42,5.42,0,0,0,2.47.74A4.52,4.52,0,0,1,94,78.38c0,.05.1,0,.09-.06A6.14,6.14,0,0,0,93,75.86c-.38-.46-.8-.84-1.16-1.32a4.84,4.84,0,0,1-.93-3,2.8,2.8,0,0,1,1.07-2.23s0-.14,0-.14c-1.45,0-2.4,1.16-3.45,2.19a4.69,4.69,0,0,0-3.08-2.33A11.66,11.66,0,0,0,82,68.68a21.57,21.57,0,0,0-3.81.67L66.47,72.12a36.76,36.76,0,0,1-5.82,1.39,24.53,24.53,0,0,1-5.34-.66c-2.37-.39-4.75-.78-7.12-1.4a59.16,59.16,0,0,0-6.9-1.76c-7.35-1-14.11,2.87-21.39,2.52-2-.1-4.37-.4-5.41,1.62-.22.09-.52.19-.75.26a.49.49,0,0,0-.27.67c0,1.75,1,3.32,2,4.65a34.73,34.73,0,0,0,9.87,9.28,44,44,0,0,0,5.19,2.49c3.39,1.45,7.29,3.5,10.78,3.54s7-.77,10.52-1.4A68.47,68.47,0,0,0,62.53,91,18.88,18.88,0,0,0,64.57,90.18Z"/><path class="cls-8" d="M31.05,76.55c8.86,7.72,22.92,13.36,34.28,7.5.11,0,0-.22-.08-.19C59.39,85.36,54.08,86.33,48,85a37.76,37.76,0,0,1-16.59-8.85c-.27-.24-.67.16-.4.4Z"/><path class="cls-8" d="M29.89,77.13C39,87.57,56.13,94.19,67.53,82.89c.08-.08,0-.23-.13-.17-6.31,4-12.51,6.62-20.13,5-6.82-1.48-12.48-5.77-17-10.93-.23-.26-.61.12-.38.38Z"/><path class="cls-8" d="M25.91,76.08c8.54,14.72,30.83,18.75,43.41,6.75.12-.12,0-.34-.18-.24C62.71,87.12,56,90,48,89.23A28.64,28.64,0,0,1,26.32,75.85a.24.24,0,0,0-.41.23Z"/><path class="cls-8" d="M22.66,75.93c10.71,15.58,34.7,23.17,48,6,.11-.15-.07-.35-.22-.21-7.27,6.76-15.52,11.18-25.76,9.1-9.11-1.85-16.15-8-21.87-15-.07-.1-.23,0-.16.12Z"/><path class="cls-8" d="M19.36,77C32,93.21,54.8,100,69.91,82.93a.06.06,0,0,0-.09-.09C62.42,90.17,52.53,94.28,42.1,92c-9.17-2-16.69-8.1-22.35-15.35-.22-.27-.6.11-.39.38Z"/><path class="cls-8" d="M16.17,76.23C22.33,85.41,32.12,93,43.31,94.59c10.91,1.51,23.19-3.73,29-13.24.05-.09-.08-.19-.15-.11C64.24,89.5,55.47,95.72,43.35,94,32,92.42,23.23,84.82,16.51,76c-.15-.2-.49,0-.34.2Z"/><path class="cls-8" d="M13.08,71.82c4.4,10.51,13.22,22,25.16,24.06a.09.09,0,0,0,0-.18C26.56,91.42,18.47,83.07,13.55,71.62c-.11-.26-.58-.07-.47.2Z"/></g><path class="cls-9" d="M94,78.38c0,.05.1,0,.09-.06A6.14,6.14,0,0,0,93,75.86c-.38-.46-.8-.84-1.16-1.32a4.84,4.84,0,0,1-.93-3,2.8,2.8,0,0,1,1.07-2.23s0-.14,0-.14c-1.45,0-2.4,1.16-3.45,2.19a4.69,4.69,0,0,0-3.08-2.33A11.66,11.66,0,0,0,82,68.68a21.57,21.57,0,0,0-3.81.67L66.47,72.12a36.76,36.76,0,0,1-5.82,1.39,24.53,24.53,0,0,1-5.34-.66c-2.37-.39-4.75-.78-7.12-1.4a59.16,59.16,0,0,0-6.9-1.76c-7.35-1-14.11,2.87-21.39,2.52-2-.1-4.24-.43-5.47,1.37-.08,0-.1.31-.18.34a7.79,7.79,0,0,0,1.5,1.7,10.93,10.93,0,0,0,6.06,2,34.88,34.88,0,0,0,10.8-.75A11.27,11.27,0,0,0,37,80.62a5.07,5.07,0,0,0,1.33.44c1.11.19,2.61-1,3.59-.54.48.23,1,1.26,1.35,1.72a3.93,3.93,0,0,0,1.9,1.43c6.35,1.85,12.79,1.94,19.17,2a7.7,7.7,0,0,0,5-1.4,13.43,13.43,0,0,1,2.23-1.36l.06-.08a56.22,56.22,0,0,1,5.16-5.4,23.79,23.79,0,0,1,5.38-3.82C84,72.7,86,72.05,88,72.77a3.59,3.59,0,0,0,1,3,5.42,5.42,0,0,0,2.47.74A4.52,4.52,0,0,1,94,78.38Z"/><path class="cls-10" d="M75.87,71.54A8.47,8.47,0,0,0,79,70.21,2.61,2.61,0,0,0,79.84,69c-.57.11-1.14.24-1.7.38L66.47,72.12a36.76,36.76,0,0,1-5.82,1.39,24.53,24.53,0,0,1-5.34-.66c-2.37-.39-4.75-.78-7.12-1.4a59.16,59.16,0,0,0-6.9-1.76c-5.17-.71-10,1-15,2,2.57,1,5.17,1.78,7.72,1.52a30.63,30.63,0,0,1,4.46-.6,10.57,10.57,0,0,1,5.47,2.32c3.43,2.46,7.16,4.38,11,4.37a40.28,40.28,0,0,0,5.91-.62,18.7,18.7,0,0,0,6.48-2.56C70.1,74.43,72.82,72.48,75.87,71.54Z"/><path class="cls-9" d="M44.71,82.8c1.6,2.69,4,4.34,6.35,5.89,4.35,2.89,9,5.87,13.64,5.71.11-.67-.49-1.33-.91-1.82C62.46,91,61,89.8,59.54,88.39A15.48,15.48,0,0,1,56,83.32c-.86-.62-1.73-.34-2.68-.37C50.44,82.86,47.56,82.89,44.71,82.8Z"/><ellipse class="cls-7" cx="36.88" cy="75.71" rx="1.14" ry="1.49" transform="translate(-14.02 8.61) rotate(-11.21)"/><path d="M37.51,75.58a1.05,1.05,0,0,1-.65,1.32c-.48.1-1-.34-1.1-1a1.06,1.06,0,0,1,.65-1.32C36.89,74.51,37.39,75,37.51,75.58Z"/><path class="cls-11" d="M14,74.16c4.19,5.26,13.13,5,19,3a.49.49,0,0,0-.26-.95c-5.71,1.53-14.07,2.57-18.3-2.5-.24-.28-.62.12-.4.4Z"/><path class="cls-10" d="M58.38,91.11c-1.7-.82-1.67-4-2.89-4.6-2.37-1-5.06.58-7.34.1.94.76,1.94,1.43,2.91,2.08,4.35,2.89,9,5.87,13.64,5.71.11-.67-.49-1.33-.91-1.82a30.32,30.32,0,0,0-2.32-2.35C60.47,90.64,59.49,91.56,58.38,91.11Z"/><path class="cls-10" d="M88.52,74.79c0,.1,0,.2,0,.3a2.72,2.72,0,0,0,.57.73,5.42,5.42,0,0,0,2.47.74A4.52,4.52,0,0,1,94,78.38c0,.05.1,0,.09-.06A6.14,6.14,0,0,0,93,75.86c-.38-.46-.8-.84-1.16-1.32a4.84,4.84,0,0,1-.93-3,2.8,2.8,0,0,1,1.07-2.23s0-.14,0-.14A3.34,3.34,0,0,0,90,70c0,1.07.11,2.21,0,3.38C90,74.23,88.62,74.2,88.52,74.79Z"/><path class="cls-12" d="M46.2,70.85l0,0a.66.66,0,0,0-.23-.17l-.27-.12a1.54,1.54,0,0,0-.3,0h0l-.32,0a1.24,1.24,0,0,0-.54.32.9.9,0,0,0-.25.39.86.86,0,0,0-.11.47,1.23,1.23,0,0,0,.17.62l.19.24a1.24,1.24,0,0,0,.54.32,1,1,0,0,0,.48,0,.93.93,0,0,0,.45-.15,1.21,1.21,0,0,0,.44-.43l.12-.3a1.16,1.16,0,0,0,0-.64,1.13,1.13,0,0,0-.31-.54Z"/><path class="cls-12" d="M47.15,72.37a.19.19,0,0,0,0-.38.19.19,0,0,0,0,.38Z"/><path class="cls-12" d="M50.79,75.23a1,1,0,0,0,.52-.12,1,1,0,0,0,.44-.28,1.07,1.07,0,0,0,.28-.44,1,1,0,0,0,.11-.52l0-.36a1.51,1.51,0,0,0-.35-.6l-.28-.21a1.27,1.27,0,0,0-.68-.19,1,1,0,0,0-.53.12,1,1,0,0,0-.44.28,1.07,1.07,0,0,0-.28.44,1,1,0,0,0-.11.52l0,.36a1.51,1.51,0,0,0,.35.6l.28.21a1.28,1.28,0,0,0,.69.19Z"/><path class="cls-12" d="M55.52,73.72l0,0a.42.42,0,0,0,.14.09.28.28,0,0,0,.13,0,.2.2,0,0,0,.13,0,.32.32,0,0,0,.11-.12l0,0,0-.09v-.2l0-.09-.06-.08-.08,0-.09,0a.26.26,0,0,0-.15,0,.16.16,0,0,0-.09,0,.2.2,0,0,0-.08,0,.23.23,0,0,0-.07.07.35.35,0,0,0-.05.08.36.36,0,0,0,0,.1.17.17,0,0,0,0,.1.29.29,0,0,0,0,.09.25.25,0,0,0,.08.12Z"/><path class="cls-12" d="M61.44,76a.93.93,0,0,0,.49-.11,1.18,1.18,0,0,0,.67-.67,1,1,0,0,0,.1-.48l0-.34a1.28,1.28,0,0,0-.33-.56l-.25-.2a1.3,1.3,0,0,0-.64-.17.91.91,0,0,0-.49.11,1.11,1.11,0,0,0-.67.67,1,1,0,0,0-.11.49l0,.33a1.31,1.31,0,0,0,.32.56l.26.2a1.3,1.3,0,0,0,.64.17Z"/><path class="cls-12" d="M72.2,70.82l0,0a.86.86,0,0,0-.26-.2l-.32-.13a1,1,0,0,0-.35,0h0l-.37,0a1.26,1.26,0,0,0-.62.36,1.11,1.11,0,0,0-.3.45,1.25,1.25,0,0,0-.12.54,1.36,1.36,0,0,0,.2.71l.22.29a1.43,1.43,0,0,0,.62.36,1,1,0,0,0,.56,0,1,1,0,0,0,.52-.16,1.44,1.44,0,0,0,.5-.51l.15-.33a1.58,1.58,0,0,0,0-.75,1.36,1.36,0,0,0-.37-.62Z"/><path class="cls-12" d="M75.39,71.1a.5.5,0,0,0,.24-.06.39.39,0,0,0,.19-.12.53.53,0,0,0,.13-.2.46.46,0,0,0,0-.23l0-.17a.63.63,0,0,0-.16-.27L75.7,70a.58.58,0,0,0-.31-.08.37.37,0,0,0-.23.05.51.51,0,0,0-.2.12.47.47,0,0,0-.12.2.48.48,0,0,0-.06.24l0,.16a.74.74,0,0,0,.16.27l.12.09a.69.69,0,0,0,.31.09Z"/><path class="cls-12" d="M79.38,69.33l0,0a.75.75,0,0,0-.2-.15,1,1,0,0,0-.5-.14h0a.26.26,0,0,0-.15,0,.84.84,0,0,0-.4.12.89.89,0,0,0-.3.28.87.87,0,0,0-.19.37,1.1,1.1,0,0,0,0,.57l.11.26a1.09,1.09,0,0,0,.38.39l.26.11a1.1,1.1,0,0,0,.57,0l.26-.11a1.21,1.21,0,0,0,.39-.39.82.82,0,0,0,.13-.4.9.9,0,0,0,0-.43,1.17,1.17,0,0,0-.28-.48Z"/><path class="cls-12" d="M81.42,69.23l-.07-.11-.17-.23a.85.85,0,0,0-.37-.23.54.54,0,0,0-.28-.08.86.86,0,0,0-.45,0l-.27.12-.23.17a.77.77,0,0,0-.23.36,1,1,0,0,0-.1.44l0,.13a1.25,1.25,0,0,0,.16.6,1.4,1.4,0,0,0,.42.42l.28.11a1.13,1.13,0,0,0,.63,0,.82.82,0,0,0,.4-.21,1,1,0,0,0,.3-.32,1.2,1.2,0,0,0,0-1.19Z"/><path class="cls-12" d="M67.67,73.89a.05.05,0,1,0,0-.1.05.05,0,0,0,0,.1Z"/><path class="cls-12" d="M67.44,71.8h0l-.3,0a1.59,1.59,0,0,0-.27.12h0a.67.67,0,0,0-.12.1.53.53,0,0,0-.21.21.75.75,0,0,0-.21.39l0,.32,0,.31a.82.82,0,0,0,.21.4.7.7,0,0,0,.21.21.61.61,0,0,0,.26.15,1,1,0,0,0,.45.1l.31,0L68,74a1,1,0,0,0,.33-.3.68.68,0,0,0,.15-.26.61.61,0,0,0,.08-.3.94.94,0,0,0,0-.47l-.12-.28-.18-.23a.87.87,0,0,0-.38-.25,1,1,0,0,0-.45-.1Z"/><path class="cls-12" d="M58.1,77.66a.87.87,0,0,0,.45-.1,1,1,0,0,0,.38-.24,1,1,0,0,0,.24-.38.87.87,0,0,0,.1-.45l0-.31a1.23,1.23,0,0,0-.3-.52l-.24-.18a1.11,1.11,0,0,0-.59-.16.79.79,0,0,0-.45.1.77.77,0,0,0-.38.24A.88.88,0,0,0,57,76a.87.87,0,0,0-.1.45l0,.31a1.29,1.29,0,0,0,.3.52l.24.18a1.11,1.11,0,0,0,.59.16Z"/><path class="cls-12" d="M41,71.28a.78.78,0,0,0,.43-.1,1,1,0,0,0,.6-.59.91.91,0,0,0,.1-.43l0-.3a1.2,1.2,0,0,0-.29-.5l-.23-.18A1.16,1.16,0,0,0,41,69a.91.91,0,0,0-.43.1.85.85,0,0,0-.37.23,1,1,0,0,0-.23.36.83.83,0,0,0-.09.44l0,.3a1.14,1.14,0,0,0,.28.49l.23.18a1.16,1.16,0,0,0,.57.15Z"/><path class="cls-12" d="M36.41,70.21l.06.13.1.12a.53.53,0,0,0,.2.13.28.28,0,0,0,.15,0,.53.53,0,0,0,.25,0l.14-.06.13-.1a.37.37,0,0,0,.12-.2.46.46,0,0,0,.06-.23v-.15a.63.63,0,0,0-.09-.33.76.76,0,0,0-.23-.24l-.16-.06a.69.69,0,0,0-.35,0,.43.43,0,0,0-.22.12.42.42,0,0,0-.17.18.65.65,0,0,0,0,.66Z"/><path class="cls-12" d="M39.85,70.58l0,0a.65.65,0,0,0-.21-.16,1,1,0,0,0-.53-.14h0l-.15,0a.91.91,0,0,0-.42.14.86.86,0,0,0-.31.29.78.78,0,0,0-.2.38,1,1,0,0,0,0,.6l.11.27a1.1,1.1,0,0,0,.4.4l.27.11a1,1,0,0,0,.6,0l.27-.11A1.1,1.1,0,0,0,40,72a.8.8,0,0,0,.13-.42.77.77,0,0,0,0-.45,1.18,1.18,0,0,0-.28-.5Z"/><path class="cls-12" d="M42.92,72.2l.08,0a.33.33,0,0,0,.32-.08.38.38,0,0,0,.09-.15.48.48,0,0,0,0-.17l0-.08a.42.42,0,0,0-.1-.17.35.35,0,0,0-.17-.09.37.37,0,0,0-.36.09.42.42,0,0,0-.1.37.39.39,0,0,0,.27.26Z"/><path class="cls-12" d="M47.73,75.12a1,1,0,0,0,.5-.11,1.18,1.18,0,0,0,.69-.69,1,1,0,0,0,.12-.51l0-.35a1.28,1.28,0,0,0-.34-.58l-.26-.2a1.31,1.31,0,0,0-.66-.18,1,1,0,0,0-.51.11,1,1,0,0,0-.42.27.93.93,0,0,0-.27.43,1,1,0,0,0-.12.5l.05.35a1.23,1.23,0,0,0,.34.58l.26.2a1.32,1.32,0,0,0,.67.18Z"/><path class="cls-13" d="M58.12,75.26l0,0a1,1,0,0,0,.14-.46.87.87,0,0,0,0-.48L58.15,74a1.24,1.24,0,0,0-.44-.44l0,0-.3-.13-.34,0a.93.93,0,0,0-.49.11.66.66,0,0,0-.28.16,1.32,1.32,0,0,0-.38.51.57.57,0,0,0-.09.32,1,1,0,0,0,0,.5l.13.3.2.26.25.2.31.12.33,0a.91.91,0,0,0,.49-.11.61.61,0,0,0,.28-.16.86.86,0,0,0,.32-.36Z"/><path class="cls-13" d="M58.88,75.05a.38.38,0,0,0,0-.75.38.38,0,0,0,0,.75Z"/><path class="cls-13" d="M49.62,72.15l0,0a.33.33,0,0,0,0,.14.26.26,0,0,0,0,.15l0,.09a.35.35,0,0,0,.14.13l0,0,.1,0,.11,0a.29.29,0,0,0,.16,0,.19.19,0,0,0,.1,0,.19.19,0,0,0,.07-.08.13.13,0,0,0,0-.09.2.2,0,0,0,0-.11.29.29,0,0,0,0-.16l0-.11-.06-.08L50.19,72l-.1,0H50a.29.29,0,0,0-.16,0,.21.21,0,0,0-.1.06.35.35,0,0,0-.1.11Z"/><path class="cls-13" d="M52.79,75.37h.09a1.11,1.11,0,0,0,.59-.16,1.06,1.06,0,0,0,.42-.42l0-.07a1,1,0,0,0,.16-.48.69.69,0,0,0,0-.35,1,1,0,0,0-.16-.49l-.2-.27-.27-.2a1,1,0,0,0-.49-.16.65.65,0,0,0-.34,0,1,1,0,0,0-.49.16l-.27.2-.2.27a1,1,0,0,0-.16.49.69.69,0,0,0,0,.35,1,1,0,0,0,.16.48l.2.27.27.21a1.48,1.48,0,0,0,.66.18Z"/><path class="cls-13" d="M49.72,75a.05.05,0,0,0,0-.1.05.05,0,0,0,0,.1Z"/><path class="cls-13" d="M66.1,74.14a.5.5,0,0,0,.21,0,.55.55,0,0,0,.3-.3.42.42,0,0,0,0-.22l0-.15a.61.61,0,0,0-.15-.24l-.11-.09A.57.57,0,0,0,66.1,73a.42.42,0,0,0-.22,0,.36.36,0,0,0-.18.12.44.44,0,0,0-.12.18.5.5,0,0,0,0,.21l0,.15a.58.58,0,0,0,.15.25l.11.09a.57.57,0,0,0,.29.08Z"/><path class="cls-13" d="M63.81,72.67l0,0-.12.29a.9.9,0,0,0,0,.49.52.52,0,0,0,.08.3.88.88,0,0,0,.25.4l0,0,.25.2a1,1,0,0,0,.47.15.65.65,0,0,0,.34,0,.62.62,0,0,0,.32-.09,1,1,0,0,0,.41-.26L66,74l.13-.3a1,1,0,0,0,0-.51.61.61,0,0,0-.08-.32.67.67,0,0,0-.16-.27,1,1,0,0,0-.36-.33l-.3-.13-.34,0-.34,0a1.06,1.06,0,0,0-.43.23,1.07,1.07,0,0,0-.32.35Z"/><path class="cls-13" d="M74.06,72.24a1,1,0,0,0,.55-.12,1.2,1.2,0,0,0,.45-.29,1.06,1.06,0,0,0,.29-.46,1,1,0,0,0,.12-.54l0-.37a1.43,1.43,0,0,0-.36-.62l-.29-.22a1.35,1.35,0,0,0-.71-.19,1,1,0,0,0-.54.12,1,1,0,0,0-.45.29,1.09,1.09,0,0,0-.29.45,1,1,0,0,0-.12.54l0,.38a1.35,1.35,0,0,0,.36.62l.28.22a1.48,1.48,0,0,0,.71.19Z"/><path class="cls-13" d="M69.29,72.68l0,0a.61.61,0,0,0-.08.26.53.53,0,0,0,0,.28l.07.17a.69.69,0,0,0,.26.25l0,0,.18.08.2,0a.56.56,0,0,0,.29-.06.37.37,0,0,0,.17-.1.4.4,0,0,0,.13-.13.42.42,0,0,0,.1-.17.41.41,0,0,0,0-.19.61.61,0,0,0,0-.3l-.08-.18-.12-.15-.15-.12-.18-.07-.2,0a.59.59,0,0,0-.29.07.37.37,0,0,0-.16.09.63.63,0,0,0-.19.21Z"/><path class="cls-14" d="M43.19,71.65a1,1,0,0,0,.45-.1A.87.87,0,0,0,44,71.3a.91.91,0,0,0,.24-.37.87.87,0,0,0,.1-.45l0-.32a1.26,1.26,0,0,0-.3-.51l-.24-.19a1.21,1.21,0,0,0-.59-.16,1,1,0,0,0-.45.1.87.87,0,0,0-.38.25.91.91,0,0,0-.24.37.89.89,0,0,0-.1.46l0,.31a1.19,1.19,0,0,0,.3.51l.24.19a1.21,1.21,0,0,0,.59.16Z"/><path class="cls-14" d="M48.57,73.87a1.46,1.46,0,0,0,.87-.36,1,1,0,0,0,.25-.39,1,1,0,0,0,.1-.47l0-.33a1.34,1.34,0,0,0-.31-.54l-.25-.19a1.22,1.22,0,0,0-.62-.16,1,1,0,0,0-.47.1,1.07,1.07,0,0,0-.64.65.83.83,0,0,0-.1.47l0,.32a1.22,1.22,0,0,0,.31.54l.25.19a1.3,1.3,0,0,0,.61.17Z"/><path class="cls-14" d="M49.46,75.35a.14.14,0,0,0,0-.28.14.14,0,0,0,0,.28Z"/><path class="cls-14" d="M46.21,74.09a.34.34,0,0,0,.22,0,.58.58,0,0,0,.34-.51l0-.15a.62.62,0,0,0-.14-.25L46.49,73a.55.55,0,0,0-.28-.07.67.67,0,0,0-.4.16.57.57,0,0,0-.12.18.41.41,0,0,0,0,.22l0,.15a.48.48,0,0,0,.14.25l.11.09a.59.59,0,0,0,.29.07Z"/><path class="cls-14" d="M54.4,74.43a.61.61,0,0,0,0-1.22.61.61,0,0,0,0,1.22Z"/><path class="cls-14" d="M53,74.42a.44.44,0,0,0,.25-.06.46.46,0,0,0,.21-.13.49.49,0,0,0,.14-.21.47.47,0,0,0,0-.26l0-.17a.66.66,0,0,0-.17-.29l-.13-.1a.63.63,0,0,0-.33-.09.47.47,0,0,0-.26,0,.6.6,0,0,0-.21.14.46.46,0,0,0-.13.21.54.54,0,0,0-.06.25l0,.18a.77.77,0,0,0,.17.29l.14.1a.63.63,0,0,0,.33.09Z"/><path class="cls-14" d="M58.81,76a.71.71,0,0,0,.41-.09.8.8,0,0,0,.35-.22.77.77,0,0,0,.22-.35.86.86,0,0,0,.1-.41l0-.29a1.17,1.17,0,0,0-.28-.48L59.35,74a1.14,1.14,0,0,0-.54-.14.76.76,0,0,0-.42.09.77.77,0,0,0-.34.22.89.89,0,0,0-.23.35.86.86,0,0,0-.09.42l0,.28a1.07,1.07,0,0,0,.28.48l.21.17a1.15,1.15,0,0,0,.55.14Z"/><path class="cls-14" d="M63.83,75.54l0,0a.93.93,0,0,0,.15-.46,1,1,0,0,0,0-.48l-.13-.29a1.21,1.21,0,0,0-.43-.44l0,0-.3-.13-.34,0a.93.93,0,0,0-.49.11,1.11,1.11,0,0,0-.5.39.62.62,0,0,0-.17.28.66.66,0,0,0-.08.32,1,1,0,0,0,0,.5l.13.3.19.26.26.2.3.12.34,0a.93.93,0,0,0,.49-.11.66.66,0,0,0,.28-.16,1,1,0,0,0,.32-.36Z"/><path class="cls-14" d="M61.71,75.6a.76.76,0,0,0,.42-.09.77.77,0,0,0,.34-.22.89.89,0,0,0,.23-.35.75.75,0,0,0,.09-.41l0-.29a1.07,1.07,0,0,0-.28-.48l-.21-.17a1.15,1.15,0,0,0-.55-.14.73.73,0,0,0-.41.09.8.8,0,0,0-.35.22.77.77,0,0,0-.22.35.87.87,0,0,0-.1.42l0,.28a1.11,1.11,0,0,0,.28.48l.22.17a1.14,1.14,0,0,0,.54.14Z"/><path class="cls-14" d="M72.35,71.35l-.06-.13L72.1,71a.91.91,0,0,0-.37-.24.64.64,0,0,0-.3-.08.84.84,0,0,0-.47,0l-.28.12-.24.18a1,1,0,0,0-.24.38.87.87,0,0,0-.1.45l0,.15a1.23,1.23,0,0,0,.17.62,1.21,1.21,0,0,0,.44.43l.29.13a1.43,1.43,0,0,0,.65,0,1,1,0,0,0,.41-.22.92.92,0,0,0,.31-.34,1.23,1.23,0,0,0,.17-.62,1.19,1.19,0,0,0-.17-.61Z"/><path class="cls-14" d="M74.5,71.89l.09,0a.86.86,0,0,0,.45,0,.83.83,0,0,0,.37-.22.87.87,0,0,0,.22-.37.86.86,0,0,0,0-.45l0-.08a1,1,0,0,0-.23-.39.84.84,0,0,0-.4-.23.91.91,0,0,0-.86.23.88.88,0,0,0-.23.87.91.91,0,0,0,.62.62Z"/><path class="cls-14" d="M77.79,70.19a.1.1,0,0,0,0-.19.1.1,0,0,0,0,.19Z"/></g></g></svg>