<svg xmlns="http://www.w3.org/2000/svg" viewBox="0 0 103.87 103.87"><defs><style>.cls-1{fill:#68c7dd;}.cls-2{fill:#1b5e7f;}.cls-3{fill:#174a6a;}.cls-4,.cls-7{fill:#fff;}.cls-5{fill:#fcd81c;}.cls-10,.cls-5,.cls-6,.cls-7,.cls-8,.cls-9{fill-rule:evenodd;}.cls-6{fill:#231f20;}.cls-8{fill:#ee5c2c;}.cls-9{fill:#de3531;}.cls-10{fill:#f7c62a;}</style></defs><g id="Layer_2" data-name="Layer 2"><g id="Layer_2-2" data-name="Layer 2"><circle class="cls-1" cx="51.94" cy="51.94" r="51.94"/><circle class="cls-2" cx="51.94" cy="51.94" r="44.22"/><circle class="cls-3" cx="52.8" cy="51.8" r="36.13"/><path class="cls-4" d="M67,51.36a2.14,2.14,0,0,1-1.48-.54,1.64,1.64,0,0,1-.6-1.28V45.12a1.71,1.71,0,0,1,.6-1.29A2.23,2.23,0,0,1,67,43.29a2.15,2.15,0,0,1,1.48.55,1.63,1.63,0,0,1,.59,1.28v4.42a1.67,1.67,0,0,1-.59,1.28A2.18,2.18,0,0,1,67,51.36Zm0-7.1a.88.88,0,0,0-.62.24.76.76,0,0,0-.27.59v4.43a.8.8,0,0,0,.27.6,1,1,0,0,0,1.24,0,.81.81,0,0,0,.28-.6V45.09a.77.77,0,0,0-.28-.59A.88.88,0,0,0,67,44.26Z"/><rect class="cls-4" x="70.12" y="43.94" width="1.17" height="15.25" transform="translate(24.07 -22.49) rotate(21.7)"/><path class="cls-4" d="M74.49,59.54A2.14,2.14,0,0,1,73,59a1.64,1.64,0,0,1-.6-1.27V53.3A1.64,1.64,0,0,1,73,52a2.3,2.3,0,0,1,3,0,1.67,1.67,0,0,1,.59,1.28v4.43A1.64,1.64,0,0,1,76,59,2.14,2.14,0,0,1,74.49,59.54Zm0-7.09a.91.91,0,0,0-.62.23.76.76,0,0,0-.27.59v4.44a.76.76,0,0,0,.27.59,1,1,0,0,0,1.24,0,.76.76,0,0,0,.27-.59V53.27a.76.76,0,0,0-.27-.59A.91.91,0,0,0,74.45,52.45Z"/><rect class="cls-4" x="81.1" y="48.42" width="1.17" height="7.07"/><rect class="cls-4" x="81.1" y="48.03" width="1.17" height="7.07" transform="translate(133.25 -30.12) rotate(90)"/><path class="cls-4" d="M54.15,59.51a8.07,8.07,0,0,1-5.55-2,6.18,6.18,0,0,1-2.23-4.77V36.15a6.21,6.21,0,0,1,2.25-4.8,8.11,8.11,0,0,1,5.53-2,8,8,0,0,1,5.54,2,6.27,6.27,0,0,1,2.22,4.79V52.71a6.16,6.16,0,0,1-2.25,4.78A8.08,8.08,0,0,1,54.15,59.51ZM54,33a3.35,3.35,0,0,0-2.32.88,2.88,2.88,0,0,0-1,2.21V52.64a2.9,2.9,0,0,0,1,2.22,3.39,3.39,0,0,0,2.32.87,3.43,3.43,0,0,0,2.33-.87,2.88,2.88,0,0,0,1-2.22V36.05a2.88,2.88,0,0,0-1-2.22A3.43,3.43,0,0,0,54,33Z"/><path class="cls-4" d="M35.76,59.78a7.47,7.47,0,0,1-5.45-2.09,6.48,6.48,0,0,1-2-4.83v-.21H32.9V53a3.22,3.22,0,0,0,.8,2.22,3.15,3.15,0,0,0,4.41,0A3.23,3.23,0,0,0,38.9,53V46.11l-1.4.83a5.71,5.71,0,0,1-3,.83,5.89,5.89,0,0,1-4.86-2,7.67,7.67,0,0,1-1.42-4.92V35.72l.06-.54A6.52,6.52,0,0,1,29.57,32a7.17,7.17,0,0,1,3.24-2.41,8.1,8.1,0,0,1,2.95-.52,7.52,7.52,0,0,1,5.46,2.11A6.5,6.5,0,0,1,43.27,36V52.86a6.48,6.48,0,0,1-2.12,4.88A7.54,7.54,0,0,1,35.76,59.78Zm.14-26.87a2.77,2.77,0,0,0-2.2.91,3.26,3.26,0,0,0-.8,2.23v5.72a3.21,3.21,0,0,0,1.28,2.61,2.54,2.54,0,0,0,1.7.51,2.75,2.75,0,0,0,2.87-2.2,4.22,4.22,0,0,0,.15-1V36.05a3.25,3.25,0,0,0-.79-2.23A2.77,2.77,0,0,0,35.9,32.91Z"/><path class="cls-5" d="M40.1,60.84a8.49,8.49,0,0,0-6.77,3.33c-2.56,3.53.15,8.11.75,9s2.59,2.81,1.19,8,3.23,15,17.4,14.84,19.25-9,20.21-17.37c0,0,.23-1.87-.55-2.12s-1.78.86-1.78.86.59-1.42-.24-1.82-1.57.77-1.57.77.55-1.09.12-1.36-1.29,0-2.19.62a15.42,15.42,0,0,1-7.53,1.75c-3.82,0-11.12-1.42-11.56-5.8S47.72,61.4,40.1,60.84Z"/><path class="cls-6" d="M38.74,70.22A1.62,1.62,0,1,0,37,68.61,1.68,1.68,0,0,0,38.74,70.22Z"/><path class="cls-7" d="M39.25,68.69a.5.5,0,0,0,.52-.48.52.52,0,0,0-1,0A.5.5,0,0,0,39.25,68.69Z"/><path class="cls-8" d="M31.3,69.33c.66-.54,1.09-1.34,2-.46s1.39,2.32.74,3.22-3.45,1.1-4.95-.21C27,70,30.26,70.16,31.3,69.33Z"/><path class="cls-9" d="M34.14,70.09a2.9,2.9,0,0,1,.17.55c-4.17,1-5.89.13-5.89.13A8.55,8.55,0,0,0,34.14,70.09Z"/><path class="cls-10" d="M49.13,77.63c1.58.72,4,2.47,8,2.92a10.38,10.38,0,0,0,6.68-1.06c4.8-1.94,1.31,4.29-1.16,4.83,0,0,3.48-.75,2.8,1.2S62,88.71,60.69,88.65c0,0,2.68,0,2.12,1.56S58,92.57,55.24,92.48s-11.71-1.77-12.91-8.12C41.59,80.45,44.46,75.5,49.13,77.63Z"/><path class="cls-10" d="M35.05,82.51C34.69,87.85,39.66,96.1,52.67,96c14.17-.11,19.25-9,20.21-17.37a5.29,5.29,0,0,0,0-1.13v0c-1,8.41-6,17.26-20.21,17.37C40.53,95,35.39,87.81,35.05,82.51Z"/></g></g></svg>