<svg xmlns="http://www.w3.org/2000/svg" viewBox="0 0 109.01 109.06"><defs><style>.cls-1{fill:#dd983c;}.cls-2{fill:#383838;}.cls-3{fill:#282828;}.cls-4{fill:#f70f4d;}.cls-5{fill:#f46d11;}.cls-6{fill:#eab575;}.cls-7{fill:#dbc83e;}.cls-8{fill:#fff;}</style></defs><g id="Layer_2" data-name="Layer 2"><g id="Layer_2-2" data-name="Layer 2"><path class="cls-1" d="M106.56,51.94c-1,5.54-6.18,33.7-29.8,49.16-4.64,3-12.28,7.89-22.9,8-10.93.08-18.87-4.94-23-7.62C9.19,87.31,4.32,61.07,2.69,51.94-.11,36.28-2.78,21.29,6,10.59S29.48,0,54.62,0c24.76,0,38.66,0,47.54,10.26C112.15,21.76,109,38.88,106.56,51.94Z"/><path class="cls-2" d="M100,52.26c-.89,4.85-5.41,29.47-26.06,43-4,2.66-10.73,6.9-20,7-9.55.07-16.49-4.33-20.09-6.67C14.89,83.19,10.63,60.25,9.2,52.26,6.76,38.57,4.42,25.47,12.11,16.11s20.51-9.27,42.5-9.25c21.64,0,33.79,0,41.56,9C104.9,25.88,102.11,40.85,100,52.26Z"/><path class="cls-3" d="M90.07,52.76c-.7,3.79-4.22,23-20.36,33.58-3.17,2.08-8.39,5.4-15.65,5.45-7.46,0-12.88-3.38-15.69-5.22C23.55,76.92,20.22,59,19.11,52.76c-1.91-10.7-3.74-20.93,2.27-28.25s16-7.24,33.21-7.23c16.91,0,26.4,0,32.47,7C93.88,32.15,91.7,43.84,90.07,52.76Z"/><path class="cls-4" d="M51.42,89.1l.11.07-.11,0Z"/><path class="cls-5" d="M67.17,75a5.9,5.9,0,0,0-.92,3.65,25.37,25.37,0,0,1,0,3,13,13,0,0,1-2.32,6l-.25.44a7.23,7.23,0,0,0,5-3l.11.06c-.57,1.13-1.06,2.31-1.74,3.38a37.17,37.17,0,0,1-2.68,3.68,10.33,10.33,0,0,1-5.09,3.16,16.56,16.56,0,0,1-14.24-1.85h0a28.55,28.55,0,0,0,3.21,1.15,10.57,10.57,0,0,0,8.74-1.41,9.19,9.19,0,0,0,1.81-1.87A13.25,13.25,0,0,0,61,86.33a4.64,4.64,0,0,1-3.06,2.48c.28-.85.59-1.62.81-2.42a5.64,5.64,0,0,0,0-3.18,5,5,0,0,1,1.55-5.41,17.57,17.57,0,0,0,3.11-3.71,6.87,6.87,0,0,0,1-5.2,1.45,1.45,0,0,0-.34-.69c0,.19,0,.38,0,.56a3.88,3.88,0,0,1-3.24,3.87,12.5,12.5,0,0,1-4.68-.18,11.26,11.26,0,0,0-9.94,2.66,27.24,27.24,0,0,0-2,2.2l-.27.26c-.57-2.2.3-4,1.24-5.8-.3.24-.6.45-.89.71a17.46,17.46,0,0,0-4.52,6A11,11,0,0,0,40,87.76c.28.63.65,1.22.89,1.89,0,0,0,0,0,0-.56-1-1.19-1.85-1.65-2.83a16.24,16.24,0,0,1,1-16.3A22.51,22.51,0,0,1,45,65c1.25-1,2.55-2,3.84-2.94l.33-.19c-2.75,3.41-3.68,6.79-3,8.3.56-.57,1.11-1.16,1.69-1.71a16.91,16.91,0,0,1,13.89-4.82c1.67.19,3.33.68,5,1a13.07,13.07,0,0,0,5.39.21,6,6,0,0,0,5-5.18c0-.23.07-.44.15-.82a5.93,5.93,0,0,1,.24,2.39,10.91,10.91,0,0,1-2.42,5.88A27.79,27.79,0,0,1,70,72,12.71,12.71,0,0,0,67.17,75Z"/><path class="cls-6" d="M60.35,77.8a5,5,0,0,0-1.55,5.41,5.64,5.64,0,0,1,0,3.18c-.22.8-.53,1.57-.81,2.42A4.64,4.64,0,0,0,61,86.33a13.25,13.25,0,0,1-2.12,5.06,9.19,9.19,0,0,1-1.81,1.87,10.57,10.57,0,0,1-8.74,1.41,28.55,28.55,0,0,1-3.21-1.15,11,11,0,0,0,10.75-3.24c1.53-2.08,2.21-6.35.32-8.38-2-2.19,2.63-6.84,2.63-6.84-5.16-2.15-8.68.09-8.68.09-4.63,1.52-6.39,8.59-6.39,8.59-1.33,0-1.19-4.38-1.19-4.38-1.27,1.06-1.64,9.58-1.67,10.29-.24-.67-.61-1.26-.89-1.89a11,11,0,0,1-.14-9.23,17.46,17.46,0,0,1,4.52-6c.29-.26.59-.47.89-.71-.94,1.82-1.81,3.6-1.24,5.8l.27-.26a27.24,27.24,0,0,1,2-2.2,11.26,11.26,0,0,1,9.94-2.66,12.5,12.5,0,0,0,4.68.18,3.88,3.88,0,0,0,3.24-3.87c0-.18,0-.37,0-.56a1.45,1.45,0,0,1,.34.69,6.87,6.87,0,0,1-1,5.2A17.57,17.57,0,0,1,60.35,77.8Z"/><path class="cls-1" d="M55.87,90.28a11,11,0,0,1-10.75,3.24h0v0L45,93.38l-.11-.1-2.76-2.5-1.19-1.09s0,0,0,0c0-.71.4-9.23,1.67-10.29,0,0-.14,4.39,1.19,4.38,0,0,1.76-7.07,6.39-8.59,0,0,3.52-2.24,8.68-.09,0,0-4.67,4.65-2.63,6.84C58.08,83.93,57.4,88.2,55.87,90.28Z"/><path class="cls-7" d="M42.08,90.85s.23-5.83,1.06-6.54c0,0-.09,2.78.75,2.77,0,0,1.12-4.47,4-5.44a6.17,6.17,0,0,1,5.5,0s-3,2.94-1.66,4.33.77,4-.2,5.3a7,7,0,0,1-6.83,2Z"/><path class="cls-8" d="M54.6,54.09A7.49,7.49,0,0,1,49.18,52a6.43,6.43,0,0,1-2-4.79v-.31l4.24-.29.07.63a3.16,3.16,0,0,0,1.94,2.82,2.64,2.64,0,0,0,1.06.22c3,0,3.59-1.86,3.59-3.41V39.34a3.2,3.2,0,0,0-1.28-2.6,3.08,3.08,0,0,0-4,.63,3.64,3.64,0,0,0-.64,2v.39H47.67V23.93H62.1v3.75h-10v7.65l1.46-1a5.1,5.1,0,0,1,1.23-.65,4.88,4.88,0,0,1,1.62-.25,5.62,5.62,0,0,1,4.75,2,8,8,0,0,1,1.31,4.9v6.61a6.71,6.71,0,0,1-2.27,5.22A8,8,0,0,1,54.6,54.09Z"/><path class="cls-8" d="M36.25,54.53a7.66,7.66,0,0,1-5.58-2.13,6.61,6.61,0,0,1-2.09-4.93v-.22h4.74v.32a3.33,3.33,0,0,0,.82,2.27,3.24,3.24,0,0,0,4.5,0,3.32,3.32,0,0,0,.81-2.27v-7L38,41.42a5.85,5.85,0,0,1-3,.85,6,6,0,0,1-5-2,7.85,7.85,0,0,1-1.45-5V30l.06-.55a6.69,6.69,0,0,1,1.27-3.26,7.32,7.32,0,0,1,3.32-2.46,8.23,8.23,0,0,1,3-.53,7.69,7.69,0,0,1,5.57,2.15,6.65,6.65,0,0,1,2.09,4.94V47.47a6.62,6.62,0,0,1-2.16,5A7.71,7.71,0,0,1,36.25,54.53Zm.14-27.45a2.85,2.85,0,0,0-2.26.93,3.35,3.35,0,0,0-.81,2.28v5.84a3.27,3.27,0,0,0,1.31,2.67,2.61,2.61,0,0,0,1.73.52,2.81,2.81,0,0,0,2.94-2.25,4.89,4.89,0,0,0,.15-1V30.29A3.35,3.35,0,0,0,38.64,28,2.84,2.84,0,0,0,36.39,27.08Z"/><path class="cls-8" d="M69,44.44a2.14,2.14,0,0,1-1.48-.54,1.64,1.64,0,0,1-.6-1.27V38.2a1.68,1.68,0,0,1,.6-1.28A2.18,2.18,0,0,1,69,36.38a2.14,2.14,0,0,1,1.48.54,1.63,1.63,0,0,1,.59,1.28v4.43a1.66,1.66,0,0,1-.59,1.27A2.18,2.18,0,0,1,69,44.44Zm0-7.09a.91.91,0,0,0-.62.23.76.76,0,0,0-.27.59v4.44a.76.76,0,0,0,.27.59,1,1,0,0,0,1.24,0,.77.77,0,0,0,.28-.59V38.17a.77.77,0,0,0-.28-.59A.91.91,0,0,0,69,37.35Z"/><rect class="cls-8" x="72.12" y="37.02" width="1.17" height="15.25" transform="translate(21.66 -23.72) rotate(21.7)"/><path class="cls-8" d="M76.49,52.62A2.14,2.14,0,0,1,75,52.08a1.64,1.64,0,0,1-.6-1.27V46.38A1.64,1.64,0,0,1,75,45.1a2.18,2.18,0,0,1,1.48-.54A2.14,2.14,0,0,1,78,45.1a1.7,1.7,0,0,1,.59,1.28v4.43a1.64,1.64,0,0,1-.6,1.28A2.18,2.18,0,0,1,76.49,52.62Zm0-7.09a.91.91,0,0,0-.62.23.77.77,0,0,0-.27.6v4.43a.76.76,0,0,0,.27.59,1,1,0,0,0,1.24,0,.76.76,0,0,0,.27-.59V46.36a.77.77,0,0,0-.27-.6A.91.91,0,0,0,76.45,45.53Z"/><rect class="cls-8" x="83.1" y="41.5" width="1.17" height="7.07"/><rect class="cls-8" x="83.1" y="41.12" width="1.17" height="7.07" transform="translate(128.34 -39.04) rotate(90)"/></g></g></svg>