<svg width="373" height="119" viewBox="0 0 373 119" fill="none" xmlns="http://www.w3.org/2000/svg">
<path d="M28 143V119.411C40.0722 93.0463 69.8043 61.1315 98.3636 61.1315C126.923 61.1315 156.634 74.5384 173.384 82.6393C204.944 97.9029 249.956 97.2091 293.416 47.2554C336.876 -2.69827 373.61 -14.493 415 18.8094V143H28Z" fill="#B3303A"/>
<path d="M-15 143V128.319C-2.89661 111.91 26.9123 92.0469 55.5455 92.0469C84.1786 92.0469 113.966 100.391 130.759 105.433C162.401 114.933 207.529 114.501 251.102 83.4107C294.674 52.3207 331.503 44.9799 373 65.7066V143H-15Z" fill="#C93944"/>
</svg>
