<svg xmlns="http://www.w3.org/2000/svg" viewBox="0 0 103.87 103.87"><defs><style>.cls-1{fill:#d3cc46;}.cls-2{fill:#79b524;}.cls-3{fill:#1c7c2c;}.cls-4,.cls-5{fill:#fff;}.cls-5{stroke:#fff;stroke-miterlimit:10;}</style></defs><g id="Layer_2" data-name="Layer 2"><g id="Layer_3" data-name="Layer 3"><circle class="cls-1" cx="51.94" cy="51.94" r="51.94"/><circle class="cls-2" cx="51.94" cy="51.94" r="44.22"/><circle class="cls-3" cx="51.94" cy="51.94" r="36.8"/><path class="cls-4" d="M38.89,25.82c0,3.41.07,7.7.07,11.12-.92,0-1.47,0-2.38,0,0-4.72,0-10.62,0-15.34h3.16c.87,3,1.73,6.35,2.6,9.3,0-2.83,0-6.47,0-9.3.88,0,1.37,0,2.27,0V36.94c-1,0-1.39,0-2.47,0C41.11,33.36,39.94,29.39,38.89,25.82Z"/><path class="cls-4" d="M46.37,25.26a3.51,3.51,0,0,1,3.88-3.88,3.51,3.51,0,0,1,3.88,3.88v8a3.51,3.51,0,0,1-3.88,3.88,3.51,3.51,0,0,1-3.88-3.88Zm2.56,8.18c0,1.11.51,1.53,1.32,1.53s1.33-.42,1.33-1.53V25.11c0-1.1-.51-1.52-1.33-1.52s-1.32.42-1.32,1.52Z"/><path class="cls-4" d="M61.54,36.65V25.2a6.52,6.52,0,0,1-2.54,1V23.4a2.21,2.21,0,0,0,1.15-.47,5,5,0,0,0,1.39-1.82h2.54l.13,15.54Z"/><path class="cls-4" d="M75.29,72.48c-1.54,1.36-4.08,2.58-8.63,2.58-2.86,0-6.76-.43-8.87-2.68-1.64-1.78-1.83-4-1.83-6.29v-2h8.35v3.47c0,.84,0,2.39,2.21,2.39S69,68.63,69,67.55V60.23c0-.89.05-2.54-2.3-2.54a2.07,2.07,0,0,0-2.35,2.11H56.38l.38-18.34H76.33v6.33h-12l-.23,7.46A7.79,7.79,0,0,1,65.25,54a8,8,0,0,1,10.14.19A6,6,0,0,1,77,56.66a10.81,10.81,0,0,1,.47,4v5.06C77.45,68.25,77.26,70.74,75.29,72.48Z"/><rect class="cls-4" x="55.57" y="34.97" width="2.2" height="1.99"/><path class="cls-4" d="M38.49,60.76h1.93l4.22,12.49H42.7l-.79-2.35H37l-.81,2.35H34.27m5.18-9.86L37.71,68.7H41.2Z"/><path class="cls-4" d="M34.61,66.76c0,3.21-1.34,6.47-4.47,6.47H26.62V60.5h3.52C33.21,60.5,34.57,63.61,34.61,66.76ZM28.3,70.92h1.84c2,0,2.84-2.11,2.8-4.18s-.86-4-2.8-4H28.3Z"/><polygon class="cls-5" points="52.76 60.76 49.22 67.12 49.19 67.12 49.19 73.25 47.55 73.25 47.55 67.12 44 60.76 45.8 60.76 48.37 65.7 50.95 60.76 52.76 60.76"/></g></g></svg>