<svg xmlns="http://www.w3.org/2000/svg" viewBox="0 0 103.87 103.87"><defs><style>.cls-1{fill:#d86df2;}.cls-2{fill:#744587;}.cls-3{fill:#592438;}.cls-4,.cls-5{fill:#fff;}.cls-5{stroke:#fff;stroke-miterlimit:10;}</style></defs><g id="Layer_2" data-name="Layer 2"><g id="Layer_3" data-name="Layer 3"><circle class="cls-1" cx="51.94" cy="51.94" r="51.94"/><circle class="cls-2" cx="51.94" cy="51.94" r="44.22"/><circle class="cls-3" cx="51.94" cy="51.94" r="36.8"/><path class="cls-4" d="M56.81,75.06V50.31a10.71,10.71,0,0,1-4.56,2.14v-6a3.61,3.61,0,0,0,2.06-1,10.83,10.83,0,0,0,2.5-3.95h4.58l.23,33.6Z"/><path class="cls-4" d="M64.74,49.49c0-5.39,2.06-8.47,5.83-8.47s5.83,3.08,5.83,8.47V67c0,5.39-2.06,8.47-5.83,8.47S64.74,72.41,64.74,67Zm3.84,17.87c0,2.4.77,3.32,2,3.32s2-.92,2-3.32V49.16c0-2.41-.77-3.33-2-3.33s-2,.92-2,3.33Z"/><path class="cls-4" d="M40.94,25.55c0,3.42.07,7.71.07,11.13-.92,0-1.47,0-2.39,0,0-4.72,0-10.62,0-15.34,1.22,0,1.9,0,3.17,0,.87,2.95,1.73,6.34,2.59,9.3,0-2.83,0-6.47,0-9.3.88,0,1.38,0,2.27,0V36.67c-1,0-1.38,0-2.46,0C43.16,33.1,42,29.12,40.94,25.55Z"/><path class="cls-4" d="M48.42,25a3.51,3.51,0,0,1,3.88-3.88A3.51,3.51,0,0,1,56.18,25v8a3.51,3.51,0,0,1-3.88,3.88A3.51,3.51,0,0,1,48.42,33ZM51,33.18c0,1.11.51,1.52,1.32,1.52s1.32-.41,1.32-1.52V24.85c0-1.1-.51-1.52-1.32-1.52S51,23.75,51,24.85Z"/><path class="cls-4" d="M63.58,36.39V24.94a6.43,6.43,0,0,1-2.53,1v-2.8a2.13,2.13,0,0,0,1.14-.46,4.89,4.89,0,0,0,1.39-1.82h2.54l.13,15.54Z"/><rect class="cls-4" x="57.62" y="34.7" width="2.2" height="1.99"/><path class="cls-4" d="M39.7,60.89h1.93l4.22,12.49H43.91L43.12,71H38.21l-.81,2.35H35.48m5.18-9.86-1.74,5.31h3.49Z"/><path class="cls-4" d="M35.57,66.89c0,3.21-1.35,6.47-4.48,6.47H27.58V60.63h3.51C34.16,60.63,35.53,63.74,35.57,66.89Zm-6.32,4.16h1.84c2,0,2.84-2.11,2.8-4.18s-.85-4-2.8-4H29.25Z"/><polygon class="cls-5" points="53.8 60.9 50.26 67.25 50.24 67.25 50.24 73.38 48.59 73.38 48.59 67.25 45.04 60.9 46.85 60.9 49.42 65.83 51.99 60.9 53.8 60.9"/></g></g></svg>