<svg xmlns="http://www.w3.org/2000/svg" viewBox="0 0 103.87 103.87"><defs><style>.cls-1{fill:#68c7dd;}.cls-2{fill:#174a6a;}.cls-3{fill:#1b5e7f;}.cls-4,.cls-5{fill:#fff;}.cls-5{stroke:#fff;stroke-miterlimit:10;}</style></defs><g id="Layer_2" data-name="Layer 2"><g id="Layer_3" data-name="Layer 3"><circle class="cls-1" cx="51.94" cy="51.94" r="51.94"/><circle class="cls-2" cx="51.94" cy="51.94" r="44.22"/><circle class="cls-3" cx="52.8" cy="51.8" r="36.13"/><path class="cls-4" d="M78.69,76.48a6.07,6.07,0,0,1-5.35,2.58,6,6,0,0,1-5.49-2.68c-1-1.78-1.14-4-1.14-6.29v-2h5.18v3.47c0,.84,0,2.39,1.37,2.39s1.51-1.31,1.51-2.39V64.23c0-.89,0-2.54-1.43-2.54-1.25,0-1.39,1.32-1.45,2.11H67l.24-18.34H79.33v6.33H71.89l-.15,7.46A8.18,8.18,0,0,1,72.47,58a3.81,3.81,0,0,1,3-1.73,3.67,3.67,0,0,1,3.28,1.92,6.92,6.92,0,0,1,1,2.44,17.41,17.41,0,0,1,.29,4v5.06C80,72.25,79.92,74.74,78.69,76.48Z"/><path class="cls-4" d="M60.25,78.54V53.79a10.58,10.58,0,0,1-4.56,2.14v-6a3.61,3.61,0,0,0,2.06-1,10.83,10.83,0,0,0,2.5-4h4.58l.23,33.6Z"/><path class="cls-4" d="M41.9,23.78c0,3.41.07,7.71.07,11.12-.92,0-1.47,0-2.38,0,0-4.72,0-10.62,0-15.34,1.21,0,1.89,0,3.16,0,.87,3,1.73,6.35,2.59,9.3,0-2.82,0-6.47,0-9.3.88,0,1.38,0,2.28,0V34.9H45.16C44.12,31.33,43,27.35,41.9,23.78Z"/><path class="cls-4" d="M49.38,23.22a3.51,3.51,0,0,1,3.88-3.88,3.51,3.51,0,0,1,3.88,3.88v8a3.51,3.51,0,0,1-3.88,3.88,3.51,3.51,0,0,1-3.88-3.88Zm2.56,8.18c0,1.11.51,1.53,1.32,1.53s1.32-.42,1.32-1.53V23.07c0-1.1-.51-1.52-1.32-1.52s-1.32.42-1.32,1.52Z"/><path class="cls-4" d="M64.54,34.61V23.16a6.43,6.43,0,0,1-2.53,1V21.36a2.14,2.14,0,0,0,1.14-.47,4.81,4.81,0,0,0,1.39-1.82h2.55l.13,15.54Z"/><rect class="cls-4" x="58.58" y="32.93" width="2.2" height="1.99"/><path class="cls-4" d="M39,64.38H41l4.21,12.48H43.24l-.79-2.35H37.53l-.8,2.35H34.81M40,67l-1.75,5.32h3.5Z"/><path class="cls-4" d="M34.85,70.51c0,3.22-1.34,6.47-4.47,6.47H26.86V64.26h3.52C33.45,64.26,34.82,67.37,34.85,70.51Zm-6.31,4.16h1.84c2,0,2.84-2.1,2.8-4.18s-.86-4-2.8-4H28.54Z"/><polygon class="cls-5" points="53.13 64.38 49.59 70.73 49.57 70.73 49.57 76.86 47.92 76.86 47.92 70.73 44.37 64.38 46.17 64.38 48.74 69.31 51.32 64.38 53.13 64.38"/></g></g></svg>