<svg xmlns="http://www.w3.org/2000/svg" viewBox="0 0 103.87 103.87"><defs><style>.cls-1{fill:#7422d3;}.cls-2{fill:#d8c348;}.cls-3{fill:#93812a;}.cls-4{fill:#fff;}</style></defs><g id="Layer_2" data-name="Layer 2"><g id="Layer_3" data-name="Layer 3"><circle class="cls-1" cx="51.94" cy="51.94" r="51.94"/><circle class="cls-2" cx="51.94" cy="51.94" r="44.22"/><circle class="cls-3" cx="51.94" cy="51.94" r="34"/><circle class="cls-4" cx="51.94" cy="51.94" r="23.24"/><circle class="cls-3" cx="51.94" cy="51.94" r="18.21"/><polygon class="cls-4" points="51.77 53.35 45.25 42.26 48.77 40.19 55.3 51.28 66.44 54.85 64.93 58.87 51.77 53.35"/><path class="cls-4" d="M32.46,36.62s5.83-6.87,8.81-6.75c0,0-2.53-5.29-7.55-1.18S32.46,36.62,32.46,36.62Z"/><path class="cls-4" d="M60.36,29.38s8.45,3.11,9.36,5.95c0,0,4.1-4.2-1.49-7.49S60.36,29.38,60.36,29.38Z"/></g></g></svg>