<svg xmlns="http://www.w3.org/2000/svg" viewBox="0 0 78.55 78.56"><defs><style>.cls-1{fill:#c93944;}.cls-2{fill:#c4553b;}.cls-3{fill:#fff;}</style></defs><g id="Layer_2" data-name="Layer 2"><g id="Layer_2-2" data-name="Layer 2"><path class="cls-1" d="M78.55,39.28q0,.66,0,1.32l0,.52c0,.37,0,.73-.06,1.1s-.06.69-.09,1-.07.69-.11,1a.13.13,0,0,0,0,.06c-.11.94-.27,1.87-.46,2.79q-.2.91-.42,1.83l-.24.91-.27.91a38.91,38.91,0,0,1-3.1,7.37l-.39.68c-.15.27-.31.55-.48.82s-.33.54-.5.8A39,39,0,0,1,67,67.05l-.57.56-.28.27A39.51,39.51,0,0,1,62,71.31l-.77.54-.73.48q-.44.28-.87.54c-.27.16-.54.33-.81.48-.55.32-1.11.62-1.67.91-.29.14-.57.29-.86.42-.86.42-1.73.8-2.62,1.15l-.9.34c-.3.12-.6.22-.91.32l-1,.31c-.58.18-1.17.35-1.76.5-1.17.3-2.36.55-3.56.75l-.65.1c-.22,0-.45.07-.67.09l-.57.07c-.55.06-1.09.11-1.64.15a40.61,40.61,0,0,1-4.81.05c-.6,0-1.19-.08-1.79-.13L34,78.21q-.8-.1-1.59-.24c-1-.18-2-.4-3-.65-.6-.16-1.2-.32-1.79-.51A38.63,38.63,0,0,1,24,75.47l-.88-.38-.07,0c-.56-.26-1.1-.52-1.65-.8a37.37,37.37,0,0,1-4.85-3l-.77-.56a38,38,0,0,1-4.27-3.7L11,66.5l-.29-.3A39.27,39.27,0,0,1,63.16,8.11l-22.78,0c-1.7,0-3.41.13-5.11.29-1.09.1-2.16.38-3.35.59a13.92,13.92,0,0,0-1.85.6A30.77,30.77,0,0,0,16.8,17.86,31.63,31.63,0,0,0,8.85,47,31.26,31.26,0,0,0,16.2,61,31.67,31.67,0,0,0,37.68,71.27c13.75.88,24.44-6.75,29.85-16.86a27.57,27.57,0,0,0,1.39-2.85,31.73,31.73,0,0,0-5.26-32.32A1.77,1.77,0,1,0,61,21.51a27.51,27.51,0,0,1,3.55,5.27,27.79,27.79,0,0,1,1.69,21.91A26.24,26.24,0,0,1,65,51.74a28.12,28.12,0,1,1-33.53-39,30,30,0,0,1,3.15-.68c2-.18,3.93-.43,5.89-.44q13.31,0,26.59-.05c.26.25.5.5.73.75l.18.19a1.57,1.57,0,0,1,.18.19c.53.56,1,1.14,1.5,1.73l.45.56q.3.38.57.75l.56.76q.28.39.54.78l.52.78s0,0,0,0c.33.53.66,1.06,1,1.61.16.27.32.55.47.83s.31.56.44.84.29.56.42.85c.33.66.62,1.31.89,2,.09.21.18.43.26.65s.24.59.34.89.22.61.32.91.23.68.33,1,.25.82.36,1.24c.17.62.33,1.24.46,1.86.22,1,.39,2,.53,3,.07.51.14,1,.19,1.55A37.7,37.7,0,0,1,78.55,39.28Z"/><circle class="cls-2" cx="39.53" cy="39.86" r="28.19"/><path class="cls-3" d="M67.13,11.61q-13.29,0-26.59.05c-2,0-3.93.26-5.89.44a30,30,0,0,0-3.15.68A28.11,28.11,0,0,0,18.78,58.57L16.2,61a31.64,31.64,0,0,1-7.07-29.6A31,31,0,0,1,16.8,17.86,30.77,30.77,0,0,1,30.07,9.63,13.92,13.92,0,0,1,31.92,9c1.19-.21,2.26-.49,3.35-.59,1.7-.16,3.41-.29,5.11-.29l22.78,0A35.75,35.75,0,0,1,67.13,11.61Z"/><path class="cls-3" d="M68.92,51.56a27.57,27.57,0,0,1-1.39,2.85c-5.41,10.11-16.1,17.74-29.85,16.86A31.67,31.67,0,0,1,16.2,61l2.58-2.42A28.09,28.09,0,0,0,65,51.74a26.24,26.24,0,0,0,1.18-3.05,27.79,27.79,0,0,0-1.69-21.91A27.51,27.51,0,0,0,61,21.51a1.77,1.77,0,1,1,2.69-2.27,31.73,31.73,0,0,1,5.26,32.32Z"/><path class="cls-3" d="M25.77,54.62a1.75,1.75,0,0,1-1.67-1,1.66,1.66,0,0,1,.37-2l7.12-7.14L46.45,29.63c.73-.73,1.45-1.47,2.19-2.19a1.77,1.77,0,0,1,2.6-.13A1.79,1.79,0,0,1,51.1,30L27.2,53.86A2,2,0,0,1,25.77,54.62Z"/><path class="cls-3" d="M46.79,56.12a6.49,6.49,0,1,1,6.49-6.43A6.5,6.5,0,0,1,46.79,56.12Zm3-6.5a3,3,0,1,0-6,0,3,3,0,0,0,3,3A3,3,0,0,0,49.75,49.62Z"/><path class="cls-3" d="M35.42,31.77a6.5,6.5,0,1,1-6.56-6.46A6.49,6.49,0,0,1,35.42,31.77Zm-3.52.05a3,3,0,1,0-3,3A3,3,0,0,0,31.9,31.82Z"/><path class="cls-3" d="M48.6,28.28l2.3,2.32a1.17,1.17,0,0,0,1.86-.26l2.63-5a1.12,1.12,0,0,0-1.3-1.58l-4.47,1.08A2,2,0,0,0,48.6,28.28Z"/></g></g></svg>