<svg xmlns="http://www.w3.org/2000/svg" viewBox="0 0 103.87 103.87"><defs><style>.cls-1{fill:#dd687f;}.cls-2{fill:#323233;}.cls-3{fill:#434344;}.cls-4,.cls-5{fill:#fff;}.cls-5{stroke:#434344;stroke-miterlimit:10;stroke-width:3px;}</style></defs><g id="Layer_2" data-name="Layer 2"><g id="Layer_3" data-name="Layer 3"><circle class="cls-1" cx="51.94" cy="51.94" r="51.94"/><circle class="cls-2" cx="51.94" cy="51.94" r="44.22"/><circle class="cls-3" cx="51.94" cy="51.94" r="34"/></g><g id="Layer_2-2" data-name="Layer 2"><path class="cls-4" d="M52,78.49A25.51,25.51,0,1,1,77.43,52.94,25.75,25.75,0,0,1,52,78.49ZM31.92,49.71c3.39.78,3.5,1,2,4.08,0,.07-.09.13-.12.19a2.36,2.36,0,0,0,.79,3.39c1.22.84,2.61.82,3.44-.44a38.09,38.09,0,0,0,2.56-5c.34-.75.37-1.65.76-2.36a3.55,3.55,0,0,1,5.07-1.42c1.72,1.2,1.88,3.35.31,5.18-.64.74-1.43,1.36-2.12,2.07-1.16,1.19-1.35,2.19.27,3.32,3.94,2.74,3.85,7.71-.1,10.62-.63.47-1.31.89-2.28,1.54a20.15,20.15,0,0,0,13.86,1.86C66.37,70.58,73.68,60.2,72,50.45c-.35-2-1-3.43-3.48-3.16a4.67,4.67,0,0,1-4.72-2.56,29.58,29.58,0,0,0-2.06-2.67,41.38,41.38,0,0,1-3,4.94,4.66,4.66,0,0,1-3,1.64c-1.49.07-3.2-3.07-3.39-5.46-.17-2.16,1-3.23,2.86-3.76.8-.22,1.84-.21,2.36-.73a7.6,7.6,0,0,0,2.07-3.19c.42-1.61-1.22-1.64-2.23-2C46.09,30.12,34.19,37.6,31.92,49.71Z"/><path class="cls-4" d="M62.44,62.19c-1.66-.06-5.2-2.59-5.74-4.14-.47-1.36.32-2.07,1.47-1.73,2.39.72,4.23-.27,6.2-1.33a4.39,4.39,0,0,1,2.83-.47,2.49,2.49,0,0,1,1.51,1.78C68.81,58.38,64.51,62.26,62.44,62.19Z"/><polygon class="cls-5" points="52.36 72.26 61.62 79.21 72.27 58.04 78.53 63.23 76.21 45.17 59.59 50.48 67.29 54.11 51.03 71.56 52.36 72.26"/></g></g></svg>