<svg xmlns="http://www.w3.org/2000/svg" viewBox="0 0 103.87 103.87"><defs><style>.cls-1{fill:#67df82;}.cls-2{fill:#174a6a;}.cls-3{fill:#1b5e7f;}.cls-4{fill:#fff;}</style></defs><g id="Layer_2" data-name="Layer 2"><g id="Layer_3" data-name="Layer 3"><circle class="cls-1" cx="51.94" cy="51.94" r="51.94"/><circle class="cls-2" cx="51.94" cy="51.94" r="44.22"/><circle class="cls-3" cx="51.94" cy="51.94" r="34"/><polygon class="cls-4" points="51.94 22.98 55.8 30.81 64.44 32.07 58.19 38.16 59.66 46.77 51.94 42.7 44.21 46.77 45.69 38.16 39.43 32.07 48.07 30.81 51.94 22.98"/><path class="cls-4" d="M32.91,56V73l-3.42-.52V48.94c1.91.28,2.86.42,4.76.73Q36.2,57,38.14,64.4V50.31l3.37.59V74.44c-1.55-.28-2.33-.41-3.88-.67Q35.28,64.86,32.91,56Z"/><path class="cls-4" d="M49.78,62.88c1.94-.23,2.91-.35,4.84-.61V65.4c-1.93.25-2.9.38-4.84.61v6.4c2.44-.29,3.66-.44,6.09-.78v3.13c-3.84.52-5.76.76-9.62,1.17V54.07c3.86-.42,5.78-.65,9.62-1.18V56c-2.43.34-3.65.49-6.09.78Z"/><path class="cls-4" d="M67.7,55.72q-1.29,8.55-2.59,17.11c-2.11.32-3.16.47-5.28.75V50c1.44-.19,2.16-.29,3.59-.5V66.42q1.32-8.64,2.63-17.27c1.43-.22,2.15-.33,3.58-.57l2.82,16.18V48.11c1.32-.22,2-.34,3.3-.58V71.08c-2.1.37-3.15.56-5.26.9Z"/></g></g></svg>