<svg xmlns="http://www.w3.org/2000/svg" viewBox="0 0 122.28 119.68"><defs><style>.cls-1{fill:#ee626d;}.cls-2{fill:#a52332;}.cls-3{fill:#420d14;}.cls-4{fill:#fce187;}.cls-5{fill:#e8a038;}.cls-6{fill:#f6b443;}.cls-7{fill:#fff;}</style></defs><g id="Layer_2" data-name="Layer 2"><g id="Layer_2-2" data-name="Layer 2"><path class="cls-1" d="M71.07,98.27l18,19.29s1.38,1.8,5,2.08,5.9-21.21,6-21.75c2.67-.09,21.74-.81,21.74-4.06,0-3.5-1.67-5-1.67-5L102.38,70.25,87.44,83.7l-.21-.23Z"/><path class="cls-1" d="M101.88,69.93a.83.83,0,0,1,1.18,0l17.47,18.65s1.71,1.5,1.75,5.15c0,3.25-17.57,4.28-21.39,4.46a.84.84,0,0,0-.79.74c-.45,4.32-2.39,20.92-5.42,20.72-3.49-.24-4.83-2-4.83-2L73,99.32a.83.83,0,0,1,0-1.17L86.86,84.71l-.22-.23Z"/><path class="cls-2" d="M99.36,67.13a.84.84,0,0,1,1.19,0L118,85.81s1.7,1.5,1.74,5.15c0,3.25-17.56,4.28-21.38,4.46a.83.83,0,0,0-.79.74c-.46,4.32-2.39,20.92-5.42,20.72-3.5-.24-4.83-2-4.83-2L70.48,96.52a.84.84,0,0,1,0-1.17L84.35,81.91l-.22-.22Z"/><path class="cls-3" d="M96.05,63.65a.83.83,0,0,1,1.19,0l17.47,18.65s1.7,1.49,1.74,5.14c0,3.25-17.57,4.28-21.38,4.47a.82.82,0,0,0-.79.74c-.46,4.32-2.39,20.92-5.43,20.71-3.49-.23-4.83-2-4.83-2L67.17,93a.84.84,0,0,1,0-1.17L81,78.43l-.21-.23Z"/><path class="cls-1" d="M50.12,96.7a.84.84,0,0,1,0,1.19L32.72,116.56s-1.38,1.8-5,2.08c-3.24.25-5.44-17.24-5.88-21a.84.84,0,0,0-.79-.74c-4.34-.16-21-1-21-4,0-3.5,1.67-5,1.67-5l17.2-18a.83.83,0,0,1,1.16,0L34.37,82.7l.21-.23Z"/><path class="cls-2" d="M52.74,94a.83.83,0,0,1,0,1.19L35.35,113.86s-1.38,1.8-5,2.08c-3.25.26-5.44-17.24-5.88-21a.82.82,0,0,0-.79-.73c-4.34-.17-21-1-21-4,0-3.5,1.67-4.95,1.67-4.95l17.19-18a.83.83,0,0,1,1.17,0L37,80l.21-.23Z"/><path class="cls-3" d="M56,90.47a.84.84,0,0,1,0,1.18L38.6,110.33s-1.38,1.8-5,2.08c-3.24.25-5.44-17.25-5.88-21a.83.83,0,0,0-.79-.74c-4.34-.17-21-1-21-4,0-3.5,1.67-4.95,1.67-4.95L24.75,63.6a.85.85,0,0,1,1.17,0L40.25,76.47l.21-.23Z"/><path class="cls-4" d="M108.35,53.48c.2,1.13,1.49,9.41.12,12.93a10.55,10.55,0,0,1-.52,1.08h0c-2,3.53-6.76,7.32-6.76,7.32l-.06,0c-.1.26-.4,1.08-.85,2.18h0l-.73.52a49.32,49.32,0,0,1-4,7.91,11.35,11.35,0,0,1-2.27,2.67c-3,2.32-9.47,3.38-10.43,3.53-1.51,1.32-7.13,6.13-10.58,6.81-4,.78-11-1.62-11-1.62-.67.15-9.28,2-13,.82-3.42-1.14-7.65-5.58-8.59-6.61-1.12-.28-9.23-2.38-11.91-5-2.89-2.88-4.81-10-4.81-10l0,0c-.71-.68-6.86-6.61-7.88-10.3-1-3.41.34-9.28.7-10.75-.76-2-3.13-8.78-2.56-12.16.65-3.82,5-9.16,5.4-9.68.26-2.32,1.21-9.16,3.21-11.86,2.25-3,8.23-5.77,9.12-6.17,1.1-1.67,5.25-7.8,8.39-9.37s9.27-1.44,10.72-1.38l.32,0C51,3.94,58,.27,62,0c3.88.25,9.52,3.62,10.09,4h.49l.18.12a52.53,52.53,0,0,1,9.3.6h0a9.51,9.51,0,0,1,2.18.78c3.31,1.81,6.87,7.34,7.39,8.16l1.19.59v0c.77.42,6.77,3.68,9.49,6.71,0,0,0,0,0,0,2.14,3.49,2.68,10.39,2.68,10.39l.3.41h0c1.2,1.69,5.32,7.71,5.63,11.17S108.92,52.21,108.35,53.48Z"/><path class="cls-5" d="M100.38,52.76c.16.93,1.23,7.79.1,10.7a8.14,8.14,0,0,1-.44.89h0c-1.66,2.92-5.6,6.06-5.6,6.06l0,0c-.08.22-.33.9-.7,1.81h0l-.61.43a40.61,40.61,0,0,1-3.28,6.54,9.31,9.31,0,0,1-1.88,2.21c-2.46,1.92-7.84,2.8-8.63,2.93C78,85.42,73.39,89.4,70.53,90c-3.31.65-9.1-1.34-9.1-1.34-.56.13-7.68,1.7-10.76.68-2.83-.94-6.34-4.62-7.11-5.47-.93-.23-7.64-2-9.86-4.18-2.39-2.38-4-8.31-4-8.31l0,0c-.59-.57-5.68-5.47-6.52-8.53-.79-2.82.28-7.68.58-8.9-.63-1.68-2.59-7.26-2.12-10.06.54-3.16,4.11-7.58,4.47-8,.21-1.92,1-7.58,2.66-9.82,1.86-2.5,6.81-4.77,7.54-5.1.91-1.39,4.35-6.46,7-7.76S51,11.94,52.18,12h.27c.47-.24,6.21-3.28,9.59-3.5,3.21.2,7.88,3,8.35,3.29h.41l.14.1a43.34,43.34,0,0,1,7.7.5h0a8.42,8.42,0,0,1,1.81.65c2.74,1.5,5.68,6.08,6.12,6.75l1,.49v0c.64.35,5.61,3.05,7.86,5.55v0c1.78,2.89,2.22,8.6,2.22,8.6s.13.16.25.34h0c1,1.4,4.4,6.38,4.66,9.24S100.85,51.71,100.38,52.76Z"/><circle class="cls-6" cx="62.1" cy="49.29" r="36.73"/><path class="cls-7" d="M59.47,69.25v-32H52.05V34a16.74,16.74,0,0,0,5.62-1.72,10.63,10.63,0,0,0,4.13-3.43h5V69.25Z"/></g></g></svg>