<svg xmlns="http://www.w3.org/2000/svg" viewBox="0 0 97.83 120.78"><defs><style>.cls-1{fill:#599636;}.cls-2{fill:#355122;}.cls-3{fill:#ce8b32;}.cls-4{fill:#84581f;}.cls-5{fill:#b77b39;}.cls-6{fill:#fff;}</style></defs><g id="Layer_2" data-name="Layer 2"><g id="Layer_2-2" data-name="Layer 2"><path class="cls-1" d="M28.23,89.17l.45,26.39s-.18,2.26,2.33,4.91,18.59-11.79,19-12.15c2,1.72,16.68,14,18.86,11.55,2.34-2.6,2.08-4.8,2.08-4.8l-.7-25.72-20.11,0V89Z"/><path class="cls-2" d="M28.11,84.18l.45,26.4s-.18,2.26,2.33,4.91,18.59-11.8,19-12.16c2,1.73,16.68,14,18.86,11.56,2.34-2.6,2.08-4.8,2.08-4.8l-.7-25.73L50,84.34V84Z"/><path class="cls-3" d="M95.16,53.48c.2,1.13,1.49,9.41.12,12.93a10.55,10.55,0,0,1-.52,1.08h0C92.75,71,88,74.82,88,74.82l-.06,0c-.1.26-.4,1.08-.85,2.18h0l-.73.52a49.32,49.32,0,0,1-4,7.91,11.35,11.35,0,0,1-2.27,2.67c-3,2.32-9.47,3.38-10.43,3.53-1.51,1.32-7.13,6.13-10.58,6.81-4,.78-11-1.62-11-1.62-.67.15-9.28,2-13,.82-3.42-1.14-7.65-5.58-8.59-6.61-1.12-.28-9.23-2.38-11.91-5-2.89-2.88-4.81-10-4.81-10l0,0C9.12,75.21,3,69.28,2,65.59c-.95-3.41.34-9.28.7-10.75-.76-2-3.13-8.78-2.56-12.16.65-3.82,5-9.16,5.4-9.68.26-2.32,1.21-9.16,3.21-11.86,2.25-3,8.23-5.77,9.12-6.17,1.1-1.67,5.25-7.8,8.39-9.37s9.27-1.44,10.72-1.38l.32,0c.57-.3,7.51-4,11.59-4.24,3.88.25,9.52,3.62,10.09,4h.49l.18.12a52.53,52.53,0,0,1,9.3.6h0a9.51,9.51,0,0,1,2.18.78c3.31,1.81,6.87,7.34,7.39,8.16l1.19.59v0c.77.42,6.77,3.68,9.49,6.71,0,0,0,0,0,0,2.14,3.49,2.68,10.39,2.68,10.39l.3.41h0c1.2,1.69,5.32,7.71,5.63,11.17S95.73,52.21,95.16,53.48Z"/><path class="cls-4" d="M87.19,52.76c.16.93,1.23,7.79.1,10.7-.12.29-.27.59-.43.89h0c-1.66,2.92-5.6,6.06-5.6,6.06l0,0c-.08.22-.33.9-.7,1.81h0l-.6.43a41.68,41.68,0,0,1-3.29,6.54,9.08,9.08,0,0,1-1.88,2.21c-2.46,1.92-7.84,2.8-8.63,2.93-1.25,1.09-5.9,5.07-8.76,5.63-3.31.65-9.1-1.34-9.1-1.34-.56.13-7.68,1.7-10.76.68-2.83-.94-6.33-4.62-7.11-5.47-.93-.23-7.64-2-9.86-4.18-2.39-2.38-4-8.31-4-8.31l0,0c-.58-.57-5.67-5.47-6.52-8.53-.78-2.82.28-7.68.58-8.9C10,52.2,8,46.62,8.5,43.82c.54-3.16,4.11-7.58,4.47-8,.22-1.92,1-7.58,2.66-9.82,1.86-2.5,6.81-4.77,7.55-5.1.91-1.39,4.34-6.46,6.94-7.76S37.79,11.94,39,12h.27c.47-.24,6.21-3.28,9.59-3.5,3.21.2,7.88,3,8.35,3.29h.41a1,1,0,0,0,.15.1,43.28,43.28,0,0,1,7.69.5h0a8.52,8.52,0,0,1,1.8.65c2.74,1.5,5.69,6.08,6.12,6.75l1,.49v0c.64.35,5.61,3.05,7.86,5.55,0,0,0,0,0,0,1.77,2.89,2.22,8.6,2.22,8.6s.12.16.24.34h0c1,1.4,4.41,6.38,4.66,9.24S87.66,51.71,87.19,52.76Z"/><circle class="cls-5" cx="48.91" cy="49.29" r="36.73"/><path class="cls-6" d="M47.7,72.63a16.06,16.06,0,0,1-10-3.09c-2.65-2-4-4.44-4-7.23v-.5l7.5-.44.12,1a4.67,4.67,0,0,0,1.91,3.29,6.72,6.72,0,0,0,4.18,1.25c3.22,0,7.07-.89,7.07-5.12V59.05c0-5-3.33-7.59-9.9-7.76V46.68c3.38-.1,5.95-.91,7.66-2.41a7.73,7.73,0,0,0,2.58-6.16V37c0-4.29-3.26-5.19-6-5.19A5.91,5.91,0,0,0,44,33.79a5.77,5.77,0,0,0-1.18,3.74v.53H35.17v-.39a9.82,9.82,0,0,1,3.11-7.52c2.37-2.22,5.79-3.34,10.16-3.34,4.15,0,7.51,1.05,10,3.14a8.72,8.72,0,0,1,3.29,6.91v2a9.12,9.12,0,0,1-3.21,6.94,13.06,13.06,0,0,1-2.17,1.56l-2.09,1.2,2.16,1.12a12.72,12.72,0,0,1,4.92,4.47,7.16,7.16,0,0,1,1.08,4v3.64A9.28,9.28,0,0,1,58,69.6,17.48,17.48,0,0,1,47.7,72.63Z"/></g></g></svg>