<svg xmlns="http://www.w3.org/2000/svg" viewBox="0 0 103.87 103.87"><defs><style>.cls-1{fill:#d3cc46;}.cls-2{fill:#79b524;}.cls-3{fill:#1c7c2c;}.cls-4{fill:#fff;}</style></defs><g id="Layer_2" data-name="Layer 2"><g id="Layer_2-2" data-name="Layer 2"><circle class="cls-1" cx="51.94" cy="51.94" r="51.94"/><circle class="cls-2" cx="51.94" cy="51.94" r="44.22"/><circle class="cls-3" cx="51.94" cy="51.94" r="36.8"/><path class="cls-4" d="M60.34,60c.28.61.46,1.08.7,1.52a10.77,10.77,0,0,1,1.33,7.34C61.82,72,59.62,73.16,56.6,73a2.19,2.19,0,0,1-1.4-1.12,14.48,14.48,0,0,1-1-2.8c-.21-.67-.24-1.41-.48-2.07a8.52,8.52,0,0,0-1.11-2.36c-1.63-2.07-3.35-4.08-5.06-6.09a5.18,5.18,0,0,0-2.68-1.94c-.77-.19-1-.89-1-1.68,0-1.63,0-3.27,0-4.91V39.29c0-1.45.45-1.84,1.82-2.18,2-.51,4-1.12,6-1.78A28.71,28.71,0,0,1,63.73,34c3.31.33,5.1,2.44,5.14,5.75a2.25,2.25,0,0,0,.4,1.18,6,6,0,0,1,1.1,4.3,2,2,0,0,0,.21,1.15,5.29,5.29,0,0,1,.58,4A1.72,1.72,0,0,0,71.42,52a5.08,5.08,0,0,1-2.61,7.82A7.23,7.23,0,0,1,67,60C64.85,60,62.7,60,60.34,60Z"/><path class="cls-4" d="M42.12,47c0,2.57,0,5.14,0,7.7,0,1.45-.54,2-2,2q-3.3,0-6.6,0c-1.41,0-2-.63-2-2q0-7.77,0-15.55c0-1.36.6-2,2-2q3.34,0,6.68,0c1.39,0,1.95.59,1.95,2C42.13,41.77,42.12,44.39,42.12,47Zm-4.07-4.93a1.65,1.65,0,0,0-1.59-1.66,1.63,1.63,0,1,0,1.59,1.66Z"/></g></g></svg>